<?xml version="1.0" standalone="no"?>
<!DOCTYPE svg PUBLIC "-//W3C//DTD SVG 1.1//EN" "http://www.w3.org/Graphics/SVG/1.1/DTD/svg11.dtd" >
<svg xmlns="http://www.w3.org/2000/svg" xmlns:xlink="http://www.w3.org/1999/xlink" version="1.1">
<metadata></metadata>
<defs>
<font id="nickyshandregular" horiz-adv-x="1067" >
<font-face units-per-em="2048" ascent="1638" descent="-410" />
<missing-glyph horiz-adv-x="976" />
<glyph horiz-adv-x="0" />
<glyph unicode="&#xd;" horiz-adv-x="976" />
<glyph unicode=" "  horiz-adv-x="976" />
<glyph unicode="&#x09;" horiz-adv-x="976" />
<glyph unicode="&#xa0;" horiz-adv-x="976" />
<glyph unicode="!" horiz-adv-x="473" d="M147 -2q6 27 12.5 53.5t13.5 39.5t28 13q18 0 35.5 -4t58.5 -14l-29 -117zM227 848q0 197 19.5 355.5t77.5 299.5q27 -35 41 -86t14 -96q0 -63 -11.5 -243.5t-11.5 -241.5q0 -127 -16 -215q-23 -115 -76 -201q-18 88 -27.5 203.5t-9.5 224.5z" />
<glyph unicode="&#x22;" horiz-adv-x="946" d="M375 1417q0 76 20.5 125t79.5 86q25 -119 25 -209q0 -76 -19.5 -134t-66.5 -111q-25 106 -27 120q-12 66 -12 123zM641 1372q0 86 25 137q33 66 104 86l6 -96q0 -70 -12 -145q-4 -20 -53 -242q-70 115 -70 260z" />
<glyph unicode="#" horiz-adv-x="1421" d="M88 752l29 30v31q90 23 135 33q86 20 137 39q139 49 148.5 253.5t111.5 272.5q0 -47 -5 -126t-5 -95q0 -109 16 -152q29 -76 115 -75q104 0 108.5 176t127.5 243q0 -43 -8.5 -136t-8.5 -122q0 -70 17.5 -99.5t83.5 -29.5q47 0 103 9.5t110 19.5q-20 -33 -187 -94 q-141 -51 -141 -152q0 -78 84 -78q23 0 79 11.5t76 11.5q72 0 112 -11t95 -50q-164 -31 -327 -62q-70 -18 -94.5 -187t-51.5 -202q-33 131 -51 201q-37 129 -127 129q-74 0 -102 -60q-20 -43 -21 -131v-51.5t2 -46.5q0 -61 -18.5 -103.5t-69.5 -60.5q0 96 -16 197 q-6 37 -41 196q-55 -25 -113.5 -48t-111.5 -32l-58 25q-2 4 -19.5 33.5t-25.5 52.5q190 31 227 43q129 47 129 158q0 84 -77 84q-55 0 -154 -39q-113 -49 -154 -66zM621 717q0 -94 90 -94q76 0 126 45.5t50 119.5q0 90 -90 91q-72 0 -124 -44t-52 -118z" />
<glyph unicode="$" horiz-adv-x="1243" d="M98 735q0 53 227.5 180t235.5 205q2 27 3 83.5t3 103.5q0 51 -2 155.5t-2 155.5q0 129 4 174t23 133l-23 -29q10 -8 35 -8t49 8q23 -106 23 -235q0 -72 -11.5 -240t-11.5 -217q0 -98 23 -135q31 -49 121 -49q29 0 67 10q92 25 115 25q25 0 48.5 -5.5t53.5 -17.5 q14 -23 15 -61v-39l-156 2q-96 0 -157.5 -23.5t-100.5 -95.5q209 -41 336 -67q237 -50 237 -183q0 -82 -118 -145q-156 -78 -310 -154q-27 -43 -26 -110q0 -37 12 -113t12 -109q0 -125 -112 -176v90t2 82q0 221 -60 277q-68 63 -344 63q-39 0 -52 22.5t-19 67.5 q51 20 83.5 30.5t73.5 10.5t102.5 -16t92.5 -25q18 53 24 68q16 47 17 70q0 76 -45 105.5t-119 29.5q-29 0 -88.5 -6t-81.5 -6q-63 0 -121 24q-78 33 -78 90zM297 756q55 -14 96 -22.5t82 -8.5q53 0 76.5 21.5t23.5 74.5q0 18 -4 41t-8 43q-96 -33 -141 -57 q-70 -37 -125 -92zM731 545q0 -68 23.5 -108t87.5 -40q72 0 166 60q71 44 145 114q-102 45 -202.5 68t-211.5 23q0 -20 -4 -66.5t-4 -50.5z" />
<glyph unicode="%" horiz-adv-x="1509" d="M94 1069q0 147 106.5 245.5t252.5 98.5q78 0 174 -16q238 -41 291 -41q94 0 268 112q74 49 147 99l2 -39q0 -141 -149 -422q-84 -158 -312 -520q-203 -324 -253 -432q-16 -35 -37 -95q-53 -156 -58 -165q-27 -66 -69.5 -114t-102.5 -77l-6 66q0 141 164 423.5t328 555.5 q190 324 227 487q-135 14 -218 22.5t-169 8.5q-92 0 -148 -105q-121 -229 -284 -229q-68 0 -111 34.5t-43 102.5zM176 1096q0 -41 41 -56q18 -6 78 -12l29 -2q57 0 86.5 26t29.5 83q0 59 -24 125q-6 16 -33 69q-61 -27 -129 -96q-78 -82 -78 -137zM1049 219q0 100 84 189.5 t182 89.5q76 0 130 -54.5t54 -132.5q0 -98 -99.5 -167.5t-199.5 -69.5q-70 0 -110.5 38t-40.5 107zM1169 276q0 -43 17 -92q92 14 133 51.5t72 129.5q-27 14 -62 25t-63 11q-51 0 -74 -33.5t-23 -91.5z" />
<glyph unicode="&#x26;" horiz-adv-x="1273" d="M106 82q0 84 155 280.5t155 296.5q0 63 -25.5 185.5t-25.5 179.5q0 139 84 266q94 143 227 144q78 0 128 -68t50 -152q0 -94 -110.5 -305t-110.5 -309t69 -194q78 -109 175 -109q104 0 262 129q67 58 135 117q-20 -115 -94 -207q-88 -104 -176 -209q18 -76 89.5 -104.5 t90.5 -110.5q-70 0 -150 37q-186 86 -211 86q-190 0 -327 -19q-221 -31 -289 -104q-45 37 -70 74q-31 47 -31 96zM383 180q80 -23 162 -22q51 0 97 13t97 40q-82 129 -204 209q-66 -98 -100 -150.5t-52 -89.5zM469 1028q0 -66 14.5 -121t46.5 -125q53 102 107 207 q55 123 55 225q0 55 -12 111q-100 -41 -155.5 -114.5t-55.5 -182.5z" />
<glyph unicode="'" horiz-adv-x="266" d="M188 1348q0 90 15 184q6 39 63 303q47 -43 68.5 -110.5t21.5 -139.5q0 -109 -40 -225.5t-109 -185.5q-18 86 -19 174z" />
<glyph unicode="(" horiz-adv-x="679" d="M86 840q0 272 96 493q123 281 350 322q0 -113 -94 -219q-88 -92 -176 -185q-94 -119 -94 -266q0 -211 106 -387q49 -82 218 -268q139 -155 178 -264q-6 -23 -23 -50q-25 -41 -26 -47q-233 147 -377 369q-158 242 -158 502z" />
<glyph unicode=")" horiz-adv-x="532" d="M0 29q25 88 135 184q143 125 187 190q94 143 94 357q0 131 -94 338q-104 223 -207 448q0 41 37 58q143 -43 262 -394q102 -298 102 -497q0 -225 -143 -443q-160 -242 -373 -241z" />
<glyph unicode="*" horiz-adv-x="1183" d="M27 1096q51 4 104 10q78 12 162 51q-49 53 -98 109q-55 72 -56 133l6 59q84 -29 166 -112q25 -25 131 -158q2 14 15.5 192.5t101.5 227.5q14 -100 32.5 -205t55.5 -186q51 55 103 110q70 66 124 66q23 0 49.5 -7.5t51.5 -19.5l-207 -242q188 -45 201 -49 q116 -43 153 -129q-43 0 -129 6t-127 6q-37 0 -59.5 -2t-67.5 -8q37 -94 170 -205q145 -121 183 -190q-129 14 -258 111q-41 31 -213 192q-57 -205 -76 -235q-39 -72 -105 -99q0 117 -28 242q-61 -59 -128 -119.5t-141 -89.5q20 43 86 141q102 156 123 250q-141 0 -196 17 q-106 31 -129 133z" />
<glyph unicode="+" horiz-adv-x="1214" d="M147 512q276 51 293 59q121 55 121 242q0 90 13.5 160.5t46.5 169.5q20 -47 43 -94q20 -53 20 -99q0 -35 -12 -80q-29 -104 -29 -129q0 -41 24.5 -67.5t67.5 -26.5q41 0 121 22.5t121 22.5q57 0 119.5 -16t117.5 -45q-231 -45 -462 -88q-98 -53 -99 -373q0 -53 -13 -96 t-48 -74q-35 88 -53 238q-25 195 -35 241q-35 -8 -107 -28q-125 -35 -186 -35q-25 0 -45 20z" />
<glyph unicode="," horiz-adv-x="413" d="M0 -512q135 88 201 162q96 109 96 235q0 57 -51 153.5t-51 143.5l43 90q80 -61 124 -158.5t44 -203.5q0 -172 -87 -293q-96 -135 -258 -135z" />
<glyph unicode="-" horiz-adv-x="1036" d="M147 662q76 16 175.5 23t201.5 7h156q33 0 100.5 6.5t102.5 6.5q110 -1 153 -105q-72 -18 -141.5 -25.5t-157.5 -7.5q-43 0 -131 2t-133 2q-31 0 -125 -14q-53 -8 -76 -8q-49 0 -79 33q-23 25 -46 80z" />
<glyph unicode="." horiz-adv-x="294" d="M86 119q72 37 98 45q48 16 111 16q0 -61 -19 -108q-25 -66 -75 -66q-37 0 -70 39q-25 29 -45 74z" />
<glyph unicode="/" d="M86 -59q14 74 68 151q41 59 110 125q137 131 268 326q74 109 217.5 354.5t227.5 366.5q55 -49 55 -121q0 -49 -151 -301q-137 -227 -303 -469q-172 -250 -231.5 -302.5t-123 -87t-137.5 -42.5z" />
<glyph unicode="0" horiz-adv-x="1093" d="M88 813q0 205 90 369q111 201 295 200q-100 -180 -151 -284q-96 -193 -97 -289q0 -147 102.5 -251.5t250.5 -104.5q147 0 258.5 91t111.5 236t-48 254t-140 205q-66 70 -199 174q27 6 51.5 10t51.5 4q197 0 315 -190q102 -166 102 -379q0 -233 -120 -391 q-133 -174 -357 -174q-207 0 -361.5 154.5t-154.5 365.5z" />
<glyph unicode="1" horiz-adv-x="237" d="M76 1149q0 123 25.5 180t76.5 84q12 -61 17.5 -133t5.5 -150v-28v-25q0 -37 -1 -74.5t-1 -74.5v-21q0 -68 20 -286q10 -109 10 -172q0 -117 -20 -181q-35 -104 -123 -118q0 231 -2 374q-8 571 -8 625z" />
<glyph unicode="2" horiz-adv-x="1153" d="M86 330q37 129 211 258q145 109 293 217q150 139 149 307q0 59 -23.5 92t-80.5 33q-74 0 -242 -77t-217 -77q47 137 173 228.5t269 91.5q111 0 187 -49q90 -57 90 -164q0 -90 -82 -254q-66 -123 -131 -246h51h45q160 0 305 15l39 -21l31 -84q-119 -31 -235 -59 q-133 -14 -267 -29q-47 -14 -276 -111q-170 -72 -289 -71z" />
<glyph unicode="3" horiz-adv-x="1153" d="M115 395q0 20 9 42t23 44q98 -90 260 -152.5t302 -62.5q135 0 213 60q86 66 86 200q0 104 -69 173t-171 69q-66 0 -182.5 -55.5t-157.5 -55.5q-18 0 -49 11.5t-55 21.5q57 80 172 166q96 70 194 139q111 86 166 176q-43 12 -63 17q-41 10 -70 10q-53 0 -136 -27.5 t-173 -56.5q-37 0 -62 43q-14 25 -28 76q180 63 198 70q166 53 336 53q86 0 124 -25.5t38 -73.5q0 -53 -66 -178q-49 -90 -98 -178q121 -59 203 -168q92 -121 92 -246q0 -164 -197 -245q-143 -59 -336 -60q-147 0 -294 43q-209 61 -209 170z" />
<glyph unicode="4" horiz-adv-x="1214" d="M88 569q14 88 92 156q72 57 144 117l532 540q18 0 43 -10t47 -18v-422q0 -121 107 -160q141 -51 161 -80q-92 -16 -182 -33q-84 -33 -84 -149q0 -37 6 -88q14 -121 15 -152q0 -74 -51 -100q-35 -18 -117 -18q0 43 6 129t6 131q0 98 -12 135q-25 74 -101 74 q-63 0 -266 -43q-106 -23 -168 -23q-37 0 -82 3t-96 11zM385 723q86 -23 170 -23q106 0 158 39q59 46 59 150q0 43 -6 75.5t-25 88.5q-82 -59 -184 -158q-115 -117 -172 -172z" />
<glyph unicode="5" horiz-adv-x="1302" d="M88 27q10 51 16 67q14 41 39 58.5t115 23.5t125 27q201 109 209 114q111 63 201 127q102 72 184 156q-61 29 -137 43t-148 14q-106 0 -229 -26q-82 -18 -225 -62q-29 119 -29 232q0 76 9 130t40 111q51 94 406 213q330 111 477 111q53 0 95 -16.5t67 -55.5 q-123 -14 -435.5 -107t-390.5 -145q-106 -72 -106 -198q0 -18 4 -42t10 -50q68 16 153 24t158 8q209 0 319.5 -33.5t110.5 -99.5q0 -94 -211 -254q-186 -141 -425.5 -257.5t-331.5 -116.5z" />
<glyph unicode="6" horiz-adv-x="976" d="M98 547q0 223 142 500q160 315 352 335q0 -123 -86 -249q-82 -106 -164 -213q-88 -129 -88 -252q0 -49 12 -97q113 41 226 84q137 45 233 45q84 0 160 -36q98 -47 98 -123q0 -117 -238 -236q-215 -106 -354 -106q-150 0 -225 100q-68 90 -68 248zM266 360 q41 -16 93.5 -28.5t95.5 -12.5q119 0 214 59t158 165q-49 14 -96 22t-96 8q-129 0 -226.5 -50t-142.5 -163z" />
<glyph unicode="7" horiz-adv-x="1007" d="M86 1325q61 12 156 16q240 10 262 13q205 33 411 65l93 -6q-18 -80 -97.5 -337t-148.5 -464q-82 -246 -115 -305q-18 -33 -56 -47t-87 -20q0 150 73.5 323.5t149.5 351t76 320.5l-2 59q-33 -6 -168 -43q-199 -53 -293 -53q-164 0 -254 127z" />
<glyph unicode="8" horiz-adv-x="1007" d="M92 449q0 80 45 163q51 84 103 168q0 37 -26 114t-26 116q0 154 205 274q180 106 344 107q96 0 164 -48q80 -55 80 -151q0 -90 -92 -193q-45 -49 -90 -96q84 -49 129 -100q61 -70 61 -150q0 -174 -237 -315q-213 -127 -398 -127q-113 0 -184 59q-78 66 -78 179zM209 461 q0 -61 55 -96q47 -29 113 -29q127 0 305 94q201 106 201 223q0 57 -71 81t-142 24q-121 0 -281 -88q-180 -98 -180 -209zM295 963q35 -14 70.5 -21.5t78.5 -7.5q133 0 244 59q135 74 135 197q0 55 -24 104q-31 -16 -211 -90q-244 -100 -293 -241z" />
<glyph unicode="9" horiz-adv-x="886" d="M104 1006q0 150 116 261t263 111q217 0 324 -202q84 -160 84 -402l-4 -262q0 -172 -154.5 -305t-326.5 -133q-143 0 -230 106q309 92 391 135q215 115 215 322q0 59 -12 115q-135 -49 -160 -58q-98 -31 -166 -30q-129 0 -234.5 105t-105.5 237zM252 983q0 -82 59 -117 q45 -27 133 -26q47 0 203 20q78 10 123 10q-47 166 -92 236q-76 121 -205 121q-106 0 -163.5 -67.5t-57.5 -176.5z" />
<glyph unicode=":" horiz-adv-x="532" d="M160 41q0 59 39 123.5t94 103.5l31 2q61 -47 84 -65q41 -33 41 -107q0 -66 -45.5 -112.5t-112.5 -46.5q-57 0 -90 20q-41 27 -41 82zM172 631q0 59 43 104t104 45q55 0 94.5 -43t39.5 -100q0 -59 -48.5 -105.5t-105.5 -46.5q-55 0 -91 44t-36 102z" />
<glyph unicode=";" horiz-adv-x="532" d="M152 -14q0 35 60 57.5t101 22.5q63 0 93 -56q22 -42 22 -116q0 -109 -41 -234q-47 -143 -119 -201q0 41 19 152q10 61 10 92q0 92 -72.5 175t-72.5 108zM236 479q10 90 27.5 121t90.5 92q25 -33 43.5 -71.5t18.5 -73.5q0 -39 -30 -55.5t-75 -16.5z" />
<glyph unicode="&#x3c;" horiz-adv-x="1449" d="M86 662q225 143 489 356q205 166 461 397q29 -14 52.5 -24.5t66.5 -34.5q-102 -117 -264 -244q-145 -109 -291 -217q-176 -131 -276 -233q143 -76 298.5 -155t294 -116t279.5 -74q170 -55 254 -137q-61 -31 -133 -30q-104 0 -262 71q-209 96 -256 109q-123 33 -244 67 q-176 53 -285 109q-143 74 -184 156z" />
<glyph unicode="=" d="M145 840q166 39 350.5 49t436.5 10h135q-55 -68 -236 -94q-207 -18 -272 -25q-123 -16 -244 -32q-61 0 -101 19t-69 73zM295 512h53q82 0 162 6q31 0 76 8q102 18 131 19q16 0 55 -15.5t77 -18.5t101 -7q58 -8 117 -53q-70 -16 -186 -31q-31 -4 -320 -29q-59 -8 -100 -12 t-74 -4q-57 0 -74.5 35.5t-17.5 101.5z" />
<glyph unicode="&#x3e;" horiz-adv-x="1214" d="M88 59q43 104 236 232q186 115 374 231q221 147 310 291q-180 115 -248 160q-150 100 -244 186q-121 109 -192 223q33 29 75 29q27 0 144 -84q6 -4 233 -174q156 -115 207 -145q78 -43 123 -80q76 -64 76 -119q0 -76 -246 -268q-199 -156 -479 -326q-268 -162 -322 -162z " />
<glyph unicode="?" horiz-adv-x="1093" d="M145 1595q35 0 131.5 2t116.5 2q365 0 522 -65q138 -58 138 -162q0 -139 -176 -291q-66 -57 -328 -229q-176 -117 -176 -168q0 -37 65 -106q47 -49 97 -97q-150 14 -222.5 66.5t-72.5 124.5q0 100 170 223q158 104 315 209q170 125 170 227q0 78 -121 117q-90 29 -186 29 q-41 0 -94 -7q-127 -14 -156 -14q-82 0 -127 31t-66 108zM322 180q0 12 12 43q4 10 20 47l31 -28q45 -10 49 -44t10 -48l-120 -29z" />
<glyph unicode="@" horiz-adv-x="1628" d="M74 549q0 442 258 692q250 242 686 242q180 0 276.5 -110.5t96.5 -295.5q0 -213 -105 -370q-119 -178 -319 -179q-25 0 -49.5 -1t-51.5 -1q-193 0 -265.5 45t-72.5 127q0 104 92.5 207t192.5 103q72 0 129 -72q27 -33 125 -246q90 66 147.5 187.5t57.5 240.5 q0 129 -69.5 196.5t-196.5 67.5q-354 0 -580.5 -214t-226.5 -572q0 -293 170 -397q129 -80 432 -80q223 0 445 118.5t353 305.5l3 -33q0 -236 -377 -381q-295 -115 -578 -115q-262 0 -411 131q-162 141 -162 404zM649 721q47 -31 74 -46.5t41 -15.5q29 0 75 40t46 67 q0 14 -23 49q-29 45 -33 55q-70 -29 -100.5 -55.5t-79.5 -93.5z" />
<glyph unicode="A" horiz-adv-x="1124" d="M115 70q0 68 30 149q12 33 39 86q68 135 138 328q12 37 182 569q80 -66 227 -328q127 -227 248.5 -497.5t144.5 -376.5q-82 25 -137 106q-68 100 -117 132q-104 65 -320 65h-7q-209 0 -287 -119q-92 -141 -139 -155zM385 451q49 -10 115.5 -20.5t115.5 -10.5 q53 0 93.5 6.5t91.5 24.5q-53 154 -109 254q-63 117 -157 227q-59 -141 -91 -236q-39 -121 -59 -245z" />
<glyph unicode="B" horiz-adv-x="1153" d="M102 92q0 37 38 131t38 166q0 111 -16.5 332t-16.5 332q0 135 138 188q90 35 254 35q154 0 258 -39q153 -57 153 -182q0 -59 -35 -125q-77 -143 -77 -148q0 -68 157.5 -158t157.5 -223q0 -199 -336 -327q-270 -104 -506 -105q-80 0 -131 21q-76 31 -76 102zM264 918 q0 -47 10 -115q4 -33 21 -115q170 41 258 80q139 61 217 164q29 37 40 62t11 48q0 61 -100 88q-63 16 -152 17q-164 0 -219 -31q-86 -47 -86 -198zM307 354q0 -55 4 -100q14 -156 15 -168q178 0 403 84q279 103 279 242q0 92 -150 157q-125 55 -231 56q-152 0 -230 -58 q-90 -66 -90 -213z" />
<glyph unicode="C" horiz-adv-x="1421" d="M115 440q0 260 196 504q207 258 459 258q96 0 174 -77.5t78 -176.5q0 -106 -104 -135q-25 82 -48 164q-43 102 -116 102q-178 0 -357.5 -217t-179.5 -403q0 -182 139 -277q121 -82 308 -82q164 0 377.5 81t277.5 81h4l98 -22q-121 -117 -342 -187q-197 -61 -389 -61 q-244 0 -395 98q-180 117 -180 350z" />
<glyph unicode="D" horiz-adv-x="1243" d="M88 29q100 66 105 69q75 60 75 169q0 118 -20 474q-10 178 -10 281q0 70 -37 131q-6 10 -84 111q92 23 194.5 33t202.5 10q291 0 465 -86q235 -117 235 -379q0 -369 -288 -611q-270 -225 -643 -225q-106 0 -195 23zM354 414q0 -82 6.5 -150.5t22.5 -144.5q315 57 494 198 q221 177 221 476q0 193 -144 307q-133 106 -327 106q-55 0 -94 -9t-77 -39t-54.5 -74t-16.5 -93q0 -86 -20 -360q-10 -137 -11 -217z" />
<glyph unicode="E" horiz-adv-x="976" d="M117 240v813q0 100 202 135q98 16 281 16l229 -2q-72 -74 -250 -97.5t-235 -62.5q-111 -76 -111 -297q0 -86 62 -122q47 -29 139 -29q51 0 228 24q88 12 139 13q-47 -53 -334 -117q-231 -51 -231 -215q0 -96 59 -141q51 -39 149 -39q102 0 251 31.5t282 60.5 q-92 -109 -272 -164q-152 -47 -322 -47t-213 33q-53 41 -53 207z" />
<glyph unicode="F" horiz-adv-x="917" d="M88 1143q0 100 15.5 127.5t66.5 27.5q35 0 65.5 -2t59.5 -4q63 0 215 11.5t195 11.5q113 -1 215 -21q-88 -100 -356.5 -106t-305.5 -72q-12 -18 -19.5 -84.5t-7.5 -197.5v-53.5v-28.5q0 -92 32 -122t122 -30q57 0 256 51q96 25 154 25q66 0 123 -14q-96 -53 -246 -107 q-59 -20 -436 -133q25 -164 26 -172q23 -111 62 -160q-55 -35 -80 -43t-99 -20q0 102 -11 344.5t-11 318.5q0 74 -10 168q-25 227 -25 285z" />
<glyph unicode="G" horiz-adv-x="1243" d="M76 393q0 268 271 556t530 288q53 0 94 -24.5t65 -69.5q-215 -49 -366 -117q-209 -92 -324 -219q-139 -154 -139 -354q0 -156 90 -236t244 -80q164 0 325 74q178 80 256 209q-90 76 -114 92q-66 41 -140 41q-35 0 -151 -72q-57 -35 -105 -35q-27 0 -71.5 14.5t-67.5 20.5 q12 106 86 156.5t186 50.5q145 0 295 -78q181 -94 181 -223q0 -143 -293 -256q-242 -92 -422 -92q-201 0 -305 72q-125 86 -125 282z" />
<glyph unicode="H" horiz-adv-x="770" d="M121 477q0 27 12 70t16.5 157.5t18.5 239.5q27 233 125 289q10 -37 14 -78t4 -82q0 -66 -28 -260q-14 -98 -15 -156q0 -51 30 -69.5t85 -18.5q129 0 178 84q39 66 39 195q0 35 -4 102.5t-4 96.5q0 90 29 133q37 55 120 55q-14 -119 -25 -243t-11 -226q0 -76 18 -186 q41 -249 41 -306q0 -127 -113 -153q-16 98 -30 198q-20 113 -60 193q-201 -72 -252 -150q-43 -66 -43 -251v-111q-82 45 -101.5 101.5t-19.5 170.5q0 37 -6 76q-18 115 -18 129z" />
<glyph unicode="I" horiz-adv-x="858" d="M86 29q78 23 117 32q72 20 114 39q82 35 111 351q14 160 14 413q0 94 -5 151.5t-23 127.5q-84 -20 -168 -39q-31 0 -68 12q-14 4 -61 25q49 80 168 112q90 25 211 25q172 0 362 -45q-72 -20 -106 -29q-66 -18 -109 -34.5t-62.5 -64.5t-19.5 -112q0 -82 -24 -356 q-12 -137 -13 -215q0 -190 29 -225q37 -45 215 -45q-45 -84 -219 -144q-150 -51 -268 -51q-68 0 -107 10q-61 16 -88 62z" />
<glyph unicode="J" horiz-adv-x="1093" d="M88 420q35 -20 156 -180q98 -129 188 -129q143 0 215 143q57 115 58 272q0 152 -39 351q-8 47 -45 204q-72 -14 -138.5 -21t-128.5 -7l2 63l-4 55q47 0 172 21q76 12 105 12q41 0 228.5 -37t236.5 -55q-8 -6 -187 -78q-108 -43 -108 -160q0 -76 14 -227t14 -227 q0 -199 -122.5 -309.5t-321.5 -110.5q-168 0 -240 131q-55 102 -55 289z" />
<glyph unicode="K" horiz-adv-x="1183" d="M100 252q0 254 5.5 444.5t27.5 352.5q35 238 105 276l57 -512q109 25 242 113q111 76 223 151q133 82 248 94q-27 -127 -250 -278q-74 -51 -344 -201q80 -98 256 -205q252 -152 291 -180q160 -115 223 -248q-137 0 -310 105q-23 12 -301 211q-184 131 -307 166 q-20 -143 -39 -285q-39 -203 -108 -229q-10 51 -14.5 109.5t-4.5 115.5z" />
<glyph unicode="L" d="M82 473q0 205 21.5 392.5t72.5 367.5l-35 -33q14 -8 35 -8q25 0 62 12l6 -147q0 -92 -25 -398q-12 -154 -12 -239q0 -139 16 -184q33 -88 144 -89q96 0 287.5 38t277.5 38q67 0 135 -12q-139 -127 -453 -176q-207 -33 -497 -33q-18 111 -26.5 227.5t-8.5 243.5z" />
<glyph unicode="M" horiz-adv-x="1540" d="M88 27q0 102 62 215q170 315 177 341.5t23 104.5q8 39 25 115q25 106 55 160q51 92 131 92q0 -305 23 -434q43 -250 186 -379q33 55 124 240.5t142 262.5q88 135 176 187q51 -227 138 -461q69 -184 190 -442q-25 -14 -58.5 -39t-62.5 -47q-41 147 -121 333 q-98 219 -145 326q-98 -156 -195 -311q-160 -236 -231 -236q-74 0 -172 234q-23 53 -113 313q-104 -221 -114 -242q-39 -86 -62 -149l-35 -98q-10 -29 -23 -51.5t-36 -36.5q-14 -6 -27 -13q-4 -6 -6 -10l13 6q-22 22 -46 22q-9 0 -18 -3z" />
<glyph unicode="N" horiz-adv-x="1036" d="M92 893q0 74 36 111.5t108 50.5q33 -117 273.5 -417t348.5 -368q10 53 12 96.5t2 112.5q0 80 -2 129q-8 199 -8 217q0 102 11.5 186.5t44.5 162.5l28 -31h31v-602q0 -53 20 -230q11 -88 11 -137q0 -51 -6.5 -89t-24.5 -85q-98 47 -236 182q-104 102 -243 267 q-102 121 -205 243q-14 -66 -14 -141q0 -57 20 -236q10 -90 10 -141q0 -59 -3 -80.5t-13 -62.5q-47 12 -66 20q-41 16 -57 39q-8 10 -43 380t-35 423z" />
<glyph unicode="O" horiz-adv-x="1183" d="M283 833.5q217 239.5 438 239.5q186 0 321.5 -139.5t135.5 -327.5q0 -227 -256 -399q-229 -154 -467 -154q-154 0 -265 78q-124 87 -124 238q0 225 217 464.5zM255 217q52 -70 155 -70q207 0 428 134q252 151 252 348q0 119 -102.5 237.5t-217.5 118.5q-70 0 -133 -43 q-53 -37 -102 -100q-12 -16 -218 -166q-114 -83 -114 -282q0 -107 52 -177z" />
<glyph unicode="P" horiz-adv-x="1007" d="M88 629q53 39 88 91t35 116q0 66 -53 211q-31 84 -39 127q127 23 235.5 36t216.5 13q170 0 269 -37q149 -56 149 -199q0 -182 -145 -268q-70 -41 -291 -92q-176 -41 -209 -103q-14 -27 -21.5 -62.5t-7.5 -72.5t7.5 -109.5t7.5 -95.5q0 -76 -27 -122t-96 -62l4 252 q0 127 -21 205q-29 106 -102 172zM369 725.5q43 -31.5 114 -31.5q125 0 254 72q154 86 154 201q0 74 -88 112q-70 31 -154 31q-184 0 -246 -45q-77 -56 -77 -233q0 -75 43 -106.5z" />
<glyph unicode="Q" horiz-adv-x="1390" d="M84 530q0 209 154 447q170 262 364 262q39 0 80 -10q8 -2 76 -25q221 -78 313 -129q141 -78 203 -190q72 -131 72 -355q0 -193 -97 -270q-123 -100 -145 -172q47 -121 256 -283q131 -96 180 -135q-35 -8 -84 -8q-104 0 -213 96q-88 90 -176 179q-102 98 -184 98 q-45 0 -137.5 -16.5t-141.5 -16.5q-227 0 -373.5 148.5t-146.5 379.5zM201 551q0 -193 111.5 -315.5t297.5 -122.5q143 0 277 69q-57 90 -121 156q-53 55 -152 129l-22 76l53 6q127 0 225 -113q63 -74 136 -225q152 51 204 166q41 86 41 268q0 129 -106 273 q-112 153 -232 153h-2q-41 0 -75.5 -20.5t-65.5 -57.5q-14 10 -33 21q-37 20 -63 20q-31 0 -87.5 -62.5t-189.5 -62.5q-84 0 -145 -141q-51 -119 -51 -217z" />
<glyph unicode="R" horiz-adv-x="1214" d="M88 813q0 254 78 334q61 63 242 63q27 0 99.5 -2t119.5 -2q147 0 221 -20q135 -37 135 -148q0 -145 -233 -309q-12 -8 -367 -217q133 -72 266 -143q184 -100 352 -205q186 -115 213 -164q-39 -8 -88 -8q-119 0 -263 87t-277 171q-158 90 -285 90q-47 0 -94 -12 q10 -47 17 -96.5t8 -90.5q0 -57 -22 -75.5t-42 -36.5l12 12q-19 19 -48 19q-6 0 -13 -1q-20 184 -25.5 434t-5.5 320zM213 799q0 -45 6 -97.5t17 -101.5q274 117 350 160q200 117 272 264q-96 39 -168 59q-94 27 -176 27q-162 0 -231.5 -71.5t-69.5 -239.5z" />
<glyph unicode="S" horiz-adv-x="1093" d="M86 150q35 8 66.5 11t85.5 3q47 0 141 -6t141 -6q154 0 283 57q170 76 170 215q0 129 -168 199q-111 45 -342.5 77.5t-269.5 49.5q-53 23 -79 66.5t-26 105.5q0 174 270 295q223 100 422 100q80 0 127 -12q76 -20 101 -72q-395 -66 -457 -80q-354 -86 -354 -205 q0 -53 233 -114q342 -88 436 -129q236 -100 236 -252q0 -176 -314 -318q-264 -119 -469 -119q-88 0 -143 25q-74 33 -90 109z" />
<glyph unicode="T" horiz-adv-x="1153" d="M-57 1114q4 25 4 37q-2 16 -2 23q500 118 1001 119q4 0 8 -1q182 0 310.5 -11t275.5 -48q-82 -18 -379 -23.5t-424 -66.5q-184 -88 -205 -330q0 -76 8.5 -229.5t8.5 -233.5q0 -115 -14 -176q-25 -102 -91 -145q-30 135 -30 300v11q0 102 14 309t14 314q0 92 -28.5 124.5 t-124.5 32.5q-45 0 -101 -10q-135 -25 -168 -25l-59 7z" />
<glyph unicode="U" d="M74 698q0 258 30 379q25 98 74 125q12 -55 18.5 -125.5t6.5 -130.5q0 -92 -4 -166q-14 -260 -15 -276q0 -182 29 -266q49 -143 195 -144q233 0 395 195q151 181 151 423q0 128 -59 281q-68 139 -133 279q0 18 12 50t25 60q127 -113 191.5 -271.5t64.5 -336.5 q0 -328 -187 -545q-197 -229 -516 -229q-162 0 -227 129q-47 94 -47 281q0 41 -2 153.5t-2 134.5z" />
<glyph unicode="V" horiz-adv-x="946" d="M86 1202q92 -39 162 -221q33 -84 100 -356q55 -221 96 -295q33 78 129 340q78 213 136 338q82 182 178 317l37 -78q-18 -82 -70 -188q-141 -291 -145 -305q-14 -41 -68 -291q-76 -358 -227 -434q-109 287 -215 573q-113 340 -113 600z" />
<glyph unicode="W" horiz-adv-x="1509" d="M86 1083q0 12 7 31t18 35q20 -10 47 -10q8 0 20 4q66 -199 131 -398q94 -254 193 -356q45 137 96 330q41 152 82 334q102 -49 229 -342q92 -221 185 -441q72 131 123 336q41 176 81 352q51 205 123 336q56 -50 56 -116q0 -43 -33 -125q-78 -195 -82 -240 q-25 -207 -39 -285q-29 -158 -84 -272q-66 -139 -172 -229q-53 127 -104 254q-84 199 -107 251q-33 72 -117 248q-57 -272 -102 -436q-86 -305 -223 -344q0 141 -84 389q-25 74 -158 414q-86 221 -86 280z" />
<glyph unicode="X" horiz-adv-x="1509" d="M88 -150q39 96 197 297q137 170 275 346.5t138 225.5q0 35 -63 149q-147 266 -162 336l37 6q98 0 225 -223q72 -135 92 -174q33 20 265 225q160 141 299 164q0 -96 -105 -196l-196 -164q-106 -94 -107 -164q0 -82 115 -203q117 -113 233 -223q143 -139 178 -223 q-106 0 -245 102q-102 76 -244 225q-96 106 -193 213q-123 -98 -215 -204q-80 -92 -157 -218q-39 -61 -150 -256q-38 -65 -104 -65h-2q-31 0 -54.5 5t-56.5 19z" />
<glyph unicode="Y" d="M113 1231q0 20 2 31l4 32q61 -20 196 -186q121 -147 213 -147q113 0 357 223q90 84 180 170q10 -12 19.5 -29.5t9.5 -42.5q0 -82 -131 -182q-231 -176 -242 -187q-133 -127 -133 -268q0 -70 6 -139q18 -209 18 -234q0 -94 -18 -151q-25 -80 -90 -121q-33 80 -44 163 t-11 189q0 35 2 106.5t2 108.5q0 158 -88 287q-12 18 -162 188q-90 102 -90 189z" />
<glyph unicode="Z" horiz-adv-x="1273" d="M88 57q12 74 215 310q125 145 399 438q250 266 306 338q-78 16 -150 16q-74 0 -172 -14q-236 -35 -287 -35l-75 2v90l2 31q176 41 321 65q184 31 326 31q96 0 139 -12q84 -25 84 -94q0 -102 -170 -293q-170 -174 -338 -346q-199 -205 -244 -314l58 -6q84 0 200 25 q262 55 336 55q76 0 138.5 -22t97.5 -82q-59 -29 -141 -40.5t-168 -11.5q-145 0 -351 -43q-449 -94 -458 -94z" />
<glyph unicode="[" horiz-adv-x="917" d="M117 109v1667q0 35 5 81t15 60q18 27 199.5 51.5t263.5 24.5q78 0 144.5 -22.5t113.5 -74.5q-195 -14 -387 -26q-233 -47 -233 -244v-1384q0 -109 44 -162t148 -53q55 0 215 28q80 14 131 15q41 0 78 -9t64 -32q-133 -72 -304 -99q-119 -18 -321 -18q-102 0 -139 46 t-37 151z" />
<glyph unicode="\" horiz-adv-x="946" d="M127 1257q0 29 3 45.5t17 53.5q80 -100 170 -234q252 -369 275 -399q160 -205 319 -408q4 -8 9 -16q8 -16 8 -18q0 -12 -18.5 -52.5t-22.5 -50.5q-82 66 -266 297q-195 242 -332 455q-162 248 -162 327z" />
<glyph unicode="]" horiz-adv-x="886" d="M86 1835q143 31 307 48.5t322 17.5q82 0 124 -34t42 -114q0 -135 -29 -303t-57.5 -343t-28.5 -300q0 -78 43 -344q20 -127 20 -205q0 -106 -77 -160q-66 -45 -177 -45q-117 0 -235 47q-133 53 -193 140q63 0 185.5 -26t173.5 -26q86 0 121 60q29 47 28 143q0 49 -9 136 t-9 106q0 145 25.5 324.5t53 364.5t27.5 316q0 78 -44 109t-128 31q-45 0 -182 -15q-78 -8 -110 -8q-88 0 -129 20.5t-64 59.5z" />
<glyph unicode="^" horiz-adv-x="976" d="M86 541q0 68 19.5 126t56.5 126q80 145 184 323q154 264 172.5 274.5t36.5 14.5t37 8q33 -70 137.5 -228.5t151.5 -248.5q73 -144 73 -240l-8 -65q-106 39 -192 172q-225 352 -250 371q-147 -322 -166 -357q-131 -242 -252 -276z" />
<glyph unicode="_" horiz-adv-x="946" d="M0 -57q72 25 388.5 69.5t404.5 44.5q59 0 93.5 -28.5t59.5 -87.5q-86 -20 -390 -54t-388 -34q-63 0 -101 18t-67 72z" />
<glyph unicode="`" horiz-adv-x="532" d="M0 1444q35 29 86 29q104 0 248 -105q126 -92 198 -194q-178 18 -296 73q-145 68 -236 197z" />
<glyph unicode="a" d="M53 375q0 193 240 340q215 131 422 131q166 0 248 -160q61 -119 81 -348q11 -170 23 -338q-25 -4 -48.5 -8t-27.5 -4q-78 0 -114 108q-25 86 -50 174q-178 -106 -237 -137q-160 -80 -256 -80q-119 0 -200 98.5t-81 223.5zM219 350q0 -151 144 -151h2q137 0 297 112 q145 103 225 234q-16 10 -123 110q-74 70 -146 70q-150 0 -274.5 -112.5t-124.5 -262.5z" />
<glyph unicode="b" horiz-adv-x="1093" d="M82 129l6 51q147 -45 309 -45q209 0 357 90q178 109 178 312q0 77 -78 77h-2q-180 0 -381 -127q-72 -45 -324 -247q-25 51 -36 108.5t-11 122.5q0 57 6 135q14 182 15 228q0 59 -4 106q-14 166 -15 180q0 176 39 277q31 82 97 139q12 -55 18 -127t6 -131q0 -74 -6 -176 q-14 -238 -14 -297q0 -86 5 -138.5t21 -123.5q141 61 285 125q174 69 294 69h3q31 0 98.5 -8t87.5 -8q31 -27 48.5 -67t17.5 -85q0 -315 -289 -460q-219 -111 -557 -111q-80 0 -121 25q-53 31 -53 106z" />
<glyph unicode="c" horiz-adv-x="1302" d="M78 256q0 215 276 406q223 154 473 208l31 -28h60l28 -29v-61q-201 -47 -436 -179q-301 -168 -301 -315q0 -82 86 -123q66 -31 156 -31q121 0 301 43q41 10 297 80q164 45 221 45l33 -2q-63 -158 -379 -229q-213 -49 -469 -49q-176 0 -258 43q-119 61 -119 221z" />
<glyph unicode="d" d="M59 197q0 178 131 280q102 80 297 125q154 31 310 62q51 12 71.5 73.5t20.5 149.5q0 51 -4 101t-6 93q0 139 36 211q31 61 93 90q22 -92 22 -199v-9q0 -53 -6 -160t-6 -158q0 -80 14 -192q33 -256 33 -324q0 -102 -5 -162.5t-24 -150.5q-39 10 -83 14t-91 4 q-72 0 -317 -31q-115 -14 -191 -14q-164 0 -235 59q-59 49 -60 138zM315 129q78 -20 181 -20q188 0 280 59q117 76 117 252q0 68 -54.5 108.5t-121.5 40.5q-135 0 -318 -100q-204 -112 -204 -232q0 -75 120 -108z" />
<glyph unicode="e" horiz-adv-x="1243" d="M55 305q0 229 205 379q186 135 422 135q76 0 133 -33q72 -41 72 -112q0 -84 -203 -189q-143 -70 -285 -139l-192 -135q66 -47 137.5 -72.5t149.5 -25.5q137 0 288 69q49 23 432 269q0 -201 -264 -336q-223 -115 -446 -115q-182 0 -297 59q-152 78 -152 246zM244 483 q0 -4 23.5 -42t27.5 -52q135 33 237 92q128 75 179 181q-72 14 -152 14q-102 0 -166 -25q-86 -33 -127 -110q-8 -14 -15 -30.5t-7 -27.5z" />
<glyph unicode="f" horiz-adv-x="858" d="M29 811q133 23 266 47q47 106 72.5 402t87.5 409q98 184 352 184q125 0 209 -66.5t84 -189.5l-4 -63q-61 66 -123 131q-80 72 -158 72q-184 0 -278 -203q-72 -156 -72 -367q0 -166 47 -227q39 -51 139 -51q12 0 110.5 7t156.5 7q-309 -125 -388 -209t-79 -282 q0 -45 4 -179.5t4 -185.5q0 -6 -7.5 -24.5t-13.5 -32.5q-41 -33 -84 -47q-20 53 -28.5 105t-8.5 114q0 51 27 252q12 92 12 149q0 117 -137 152q-164 41 -190 96z" />
<glyph unicode="g" horiz-adv-x="1036" d="M-211 -821l2 100q16 -6 197 -190q70 -70 125 -70q195 0 385 207q166 180 276 452q104 256 105 451q0 106 -21 201q-213 -88 -260 -105q-164 -57 -272 -57q-207 0 -207 223q0 197 188 354q178 150 377 150q184 0 274 -123q80 -110 80 -303q0 -334 -96 -659 q-113 -383 -317 -603q-246 -264 -590 -264q-109 0 -177.5 62.5t-68.5 173.5zM260 397q0 -63 55 -94q43 -24 108 -24h5q141 0 285 94q161 106 161 243q0 72 -59 118t-133 46q-129 0 -275.5 -128t-146.5 -255z" />
<glyph unicode="h" horiz-adv-x="976" d="M53 498l4 516q0 178 17 260q33 166 133 203q24 -116 24 -233v-9q0 -98 -14 -238q-33 -319 -33 -399q0 -72 4 -122t19 -118q86 31 192 154q88 104 176 211q101 108 180 108h1q35 0 57 -24q16 -18 29 -57q6 -23 10 -67t4 -112q0 -94 41 -243q51 -189 59 -240 q-18 -39 -38 -55q-12 -10 -60 -33l-178 629q-47 -49 -176 -203q-119 -143 -187 -203q-113 -100 -229 -135q-20 98 -27.5 191.5t-7.5 218.5z" />
<glyph unicode="i" horiz-adv-x="532" d="M203 319q0 162 43 246q37 72 108 94q12 -55 18.5 -122.5t6.5 -126.5q0 -135 -23 -228q-35 -141 -118 -182q-18 98 -26.5 170t-8.5 149zM317 1303q0 14 7.5 36.5t29.5 73.5l31 -31q45 -8 49 -42t10 -46q-16 -6 -50 -23.5t-70 -37.5z" />
<glyph unicode="j" horiz-adv-x="770" d="M-416 -596q119 -121 242 -190q147 -84 291 -84q260 0 389 204q106 170 106 449q0 92 -26 469q-12 174 -13 283q0 63 16.5 110t57.5 78q66 -135 94.5 -316.5t28.5 -363.5q0 -375 -37 -537q-51 -227 -203 -327q-164 -109 -503 -109q-178 0 -297 74q-145 90 -146 260z M442 1264q39 55 71 84.5t50 29.5q27 0 53 -30q12 -15 35 -54q-12 -4 -57 -25.5t-62 -21.5q-16 0 -41.5 5t-48.5 12z" />
<glyph unicode="k" horiz-adv-x="1243" d="M61 254q0 287 5.5 475.5t31.5 368.5q37 246 109 286q22 -108 22 -234v-11q0 -68 -8 -209.5t-9 -212.5q0 -129 24 -236q174 96 258 152q131 86 231 188q51 53 100 80q59 33 121 33q-27 -98 -131 -197q-61 -57 -205.5 -160.5t-195.5 -156.5q180 -47 314 -67.5t298 -20.5 q63 0 118.5 -14t98.5 -48q-78 -37 -164 -54t-182 -17q-164 0 -414 49q-168 37 -247 51q-20 -86 -39 -170q-33 -90 -111 -127q-12 53 -18.5 124t-6.5 128z" />
<glyph unicode="l" horiz-adv-x="444" d="M166 461q0 80 5 200.5t5 122.5q0 76 -2 123q-8 190 -8 209q0 119 12 180q23 111 86 148q39 -170 53.5 -365t14.5 -420q0 -150 -3 -343t-5 -316q-92 68 -129 199q-29 100 -29 262z" />
<glyph unicode="m" horiz-adv-x="1421" d="M55 299q0 119 15.5 234.5t46.5 248.5q55 -51 82 -125q6 -18 39 -147q92 84 184 170q135 117 201 117q92 0 125 -174q18 -195 22 -234q170 170 211 207q164 147 231 147q90 0 156 -311q53 -249 53 -403q-68 -10 -118 -29q-29 152 -56 305q-37 178 -92 295 q-59 -49 -158 -188q-127 -182 -161 -222q-96 -111 -187 -133q0 203 -10 293q-18 156 -78 281q-182 -119 -264 -264q-12 -23 -86 -220q-39 -106 -125 -147q-31 147 -31 299z" />
<glyph unicode="n" horiz-adv-x="976" d="M53 455q0 113 25.5 189.5t99.5 135.5q29 -197 60 -391q74 92 147 184q96 113 176 170q109 76 215 76q133 0 133 -139l9 -188q0 -53 16 -130q37 -172 37 -215q0 -123 -113 -147q-18 78 -27 121q-14 68 -20 123q-4 152 -14 245q-20 180 -103 181q-104 0 -213 -172 q-94 -162 -186 -324q-117 -174 -240 -174q10 35 12.5 62.5t2.5 72.5q0 53 -8.5 159.5t-8.5 160.5z" />
<glyph unicode="o" horiz-adv-x="1124" d="M57 211q0 217 234 373q209 139 436 139q162 0 274 -88q125 -98 125 -258q0 -197 -270 -303q-203 -80 -436 -80q-145 0 -234 37q-129 53 -129 180zM209 242q0 -66 119 -99q80 -22 168 -22h8q160 0 305 49q203 67 203 192q0 94 -81 171t-175 77q-109 0 -322 -133 q-225 -141 -225 -235z" />
<glyph unicode="p" d="M82 133q0 166 30.5 343t92.5 304q53 -18 108 -18q59 0 314 59q123 29 204 29q125 0 180.5 -59.5t55.5 -190.5q0 -215 -186 -348q-102 -72 -365 -168q-217 -80 -252 -147q-23 -41 -31 -97.5t-8 -122.5q0 -59 5.5 -151t5.5 -94q0 -102 -19 -160q-27 -84 -100 -125 q-10 55 -14.5 115.5t-4.5 122.5q0 78 6 182q14 246 15 305q0 33 -25 137q-12 53 -12 84zM238 309q0 -51 7 -105t21 -114q176 41 287 86q168 70 260 164q113 116 113 276q0 127 -131 127q-117 0 -298.5 -82.5t-224.5 -179.5q-16 -37 -25 -81t-9 -91z" />
<glyph unicode="q" d="M51 219q0 174 232 359q219 174 397 174q190 0 270 -164q59 -123 60 -338q0 -127 -21 -301q-47 -401 -47 -498q0 -131 41 -213q55 -108 170 -108h2q129 0 334 59q99 30 199 59q-49 -119 -228 -192q-152 -63 -301 -64q-205 0 -282 127q-61 100 -62 322q0 80 14.5 243.5 t14.5 245.5q0 76 -3 106t-14 83q-188 -68 -225 -78q-127 -37 -235 -37q-123 0 -207 45q-109 57 -109 170zM178 270q0 -92 78 -133q59 -31 160 -31q31 0 69.5 4.5t75.5 8.5q113 16 203 130.5t90 231.5q0 88 -59 123q-45 27 -140 27q-129 0 -297 -115q-180 -123 -180 -246z " />
<glyph unicode="r" horiz-adv-x="917" d="M57 690q57 -6 117 -43q123 -76 129 -76q45 0 160 73t227 147q137 90 197 112l4 -74q2 -6 -12.5 -21t-22.5 -17q-119 -84 -235 -166q-131 -98 -207 -205q-16 -23 -80 -242q-47 -160 -158 -176q-16 70 -22.5 129t-6.5 139q0 70 -24 160q-63 229 -66 260z" />
<glyph unicode="s" horiz-adv-x="1007" d="M57 150q88 -20 164 -21q182 0 343 73.5t261 217.5q-59 31 -297 72q-405 72 -405 170q0 139 219 251q188 96 346 97q78 0 140.5 -18t119.5 -60q-172 -41 -342 -80q-201 -59 -311 -160q334 -72 391 -88q305 -88 305 -184q0 -137 -301 -277q-266 -123 -426 -123 q-82 0 -129 25q-61 33 -78 105z" />
<glyph unicode="t" horiz-adv-x="858" d="M57 600q35 39 150 100q178 96 178 232v137q0 188 10.5 320.5t46.5 265.5q45 -41 71 -110.5t26 -201.5q0 -76 -4 -137q-14 -215 -15 -231q0 -72 15 -135q49 10 106 26q125 35 188 35q2 -6 15.5 -22.5t13.5 -36.5q-31 -20 -166 -64q-201 -63 -215 -198q0 -205 -8 -316 q-16 -205 -115 -264q-10 47 -14 99.5t-4 103.5q0 61 2 121.5t4 121.5q0 92 -18 183q-45 -27 -74 -39q-53 -25 -78 -25q-20 0 -53 10.5t-62 24.5z" />
<glyph unicode="u" horiz-adv-x="1036" d="M72 401q0 139 32 279q45 190 134 223l6 -80q0 -70 -15 -168q-32 -221 -32 -281q0 -126 43 -192q51 -78 168 -78q135 0 231 193q35 68 137 377q74 223 139 260q20 -74 21 -160q0 -51 -11.5 -170t-11.5 -155q0 -82 33 -170.5t68 -176.5q0 -39 -47 -67q-29 -18 -80 -33 q-57 117 -64 131q-29 63 -53 139q-80 -117 -168 -188q-113 -92 -227 -92q-172 0 -246 123q-57 96 -57 286z" />
<glyph unicode="v" horiz-adv-x="886" d="M84 874l4 58q86 -39 125 -113q23 -43 53 -164q23 -84 82 -188q25 -43 66 -107q98 238 166 377q127 260 245 260l62 -4q-115 -203 -228 -405q-125 -244 -155 -438q0 -61 -6 -99.5t-56 -50.5l-34 -6q-47 0 -80 55q-23 37 -37.5 102.5t-120.5 358.5q-86 238 -86 364z" />
<glyph unicode="w" horiz-adv-x="1449" d="M57 782q0 27 2 53.5t9 51.5q20 0 43.5 6t35.5 10q125 -371 146 -422q51 -127 121 -239q70 170 141 340q82 203 125 350q104 -49 219 -299q84 -182 168 -363q27 51 137 396q84 264 189 356q37 -27 49 -78q-4 -25 -72 -237q-55 -176 -128 -394.5t-83 -234t-25.5 -25.5 t-35.5 -10q-66 0 -150 123q-66 96 -141 254q-49 104 -96 209q-70 -174 -138 -348q-117 -272 -180 -273q-102 0 -225 330q-111 297 -111 444z" />
<glyph unicode="x" horiz-adv-x="1183" d="M59 29q184 215 281.5 328.5t97.5 191.5q0 41 -18 96q-43 129 -43 164l6 63q68 -33 121 -104q14 -20 86 -139q82 41 174 125q240 219 272 239q29 -35 29 -82q0 -86 -139 -206q-4 -4 -215 -162q45 -74 141 -174q47 -49 94 -99q0 -23 32 -35t58 -22q61 -39 89 -100.5 t28 -141.5q-217 195 -370.5 304.5t-209.5 109.5q-86 0 -196 -100q-268 -244 -318 -256z" />
<glyph unicode="y" horiz-adv-x="1036" d="M-117 -1292q37 70 248 405.5t318 530.5q157 289 157 402q0 85 -101.5 191.5t-197.5 211.5q-106 135 -106 272l8 61q100 -82 231 -258q104 -141 209 -282q35 61 90.5 256.5t94.5 275.5q70 143 174 189l6 -99q0 -195 -86 -415q-43 -109 -189 -390q-129 -250 -178 -389 q-63 -180 -147 -358q-119 -252 -238 -399q-152 -190 -293 -205z" />
<glyph unicode="z" horiz-adv-x="1390" d="M55 782q86 43 320.5 82t322.5 39q25 0 64 -8q94 -20 121 -21q37 0 58.5 -6t66.5 -28q-59 -143 -213 -328q-131 -152 -263 -301q113 0 330 25.5t314 25.5q63 0 108.5 -4t106.5 -18q-37 -18 -307.5 -79t-462.5 -98q-256 -49 -299 -49q-78 0 -144 15q18 117 137 243 q2 4 232 215q143 133 192 236q-27 6 -67.5 8t-46.5 2q-55 0 -170 -14t-172 -14q-74 0 -127.5 16t-100.5 61z" />
<glyph unicode="{" horiz-adv-x="917" d="M88 1112q106 37 162 78q86 63 86 151q0 43 -60.5 164t-60.5 176q0 143 186 281q90 66 310 176l90 -61q-178 -111 -275 -174q-178 -119 -178 -246q0 -59 63.5 -161.5t63.5 -164.5q0 -41 -30.5 -100.5t-59.5 -110.5q31 -135 61 -270q0 -63 -71 -275q-33 -96 -33 -165 q0 -139 82 -231.5t215 -92.5q33 0 98.5 18.5t98.5 18.5q4 0 19 -6t28 -17q23 -36 35 -71q-76 -18 -136.5 -28.5t-130.5 -10.5q-193 0 -317 110q-131 117 -131 312q0 63 39 151q86 195 86 238q0 94 -58 168q-63 82 -155 73z" />
<glyph unicode="|" horiz-adv-x="413" d="M182 260q0 201 21 528q29 444 63 472q20 -4 49 -14.5t39 -12.5q0 -109 -20 -451q-10 -172 -10 -270q0 -57 2 -86q10 -145 10 -150q0 -98 -21 -149q-31 -74 -108 -98q-25 115 -25 231z" />
<glyph unicode="}" horiz-adv-x="800" d="M88 57q147 35 238 109q113 94 112 231q0 92 -53 197q-119 231 -119 256q0 33 19 76q12 31 39 67l28 2q49 47 66 142q49 270 53 278q76 123 113 191q70 127 69 206q0 156 -204.5 214.5t-219.5 142.5l29 26q25 -8 40 -13t26 -15l51 4q172 0 287 -143q108 -136 108 -314 q0 -72 -104.5 -237.5t-104.5 -223.5q0 -59 64 -98q43 -27 116 -43q-20 -29 -235 -158q-84 -49 -109 -123q14 -61 105 -217q74 -129 73 -243q0 -150 -81 -256q-88 -115 -232 -115q-98 0 -174 57z" />
<glyph unicode="~" horiz-adv-x="1183" d="M117 420q0 131 84 254q92 135 217 135q59 0 202.5 -106.5t245.5 -106.5q57 0 119 39q18 10 170 147q8 -32 8 -77q0 -121 -94 -193q-86 -66 -209 -66q-162 0 -273.5 108t-144.5 108q-51 0 -166 -138q-63 -76 -159 -104z" />
<glyph unicode="&#xa1;" horiz-adv-x="473" d="M121 178q0 63 14 293q8 131 8 193q0 127 19.5 228t73.5 187q18 -88 27 -203.5t9 -224.5q0 -197 -16 -332q-23 -182 -80 -323q-27 35 -41 86t-14 96zM205 1413l28 117l119 -29q-6 -27 -12 -53.5t-13.5 -39.5t-27.5 -13q-18 0 -35.5 4t-58.5 14z" />
<glyph unicode="&#xa2;" horiz-adv-x="1302" d="M78 256q0 158 153 305q127 123 334 217q0 129 14.5 223.5t30.5 108.5q10 -2 36 -13.5t40 -15.5l-6 -256q39 14 72.5 24.5t74.5 20.5l31 -28h60l28 -29v-61q-59 -14 -123.5 -37t-150.5 -62q0 -55 -6.5 -169.5t-6.5 -172.5q0 -29 4.5 -100.5t4.5 -79.5q88 18 344 88 q195 53 258 53l33 -2q-49 -121 -252 -192q-158 -55 -383 -76q0 -74 -27 -129t-84 -78q-8 43 -14 96.5t-6 102.5l-82 -2q-176 0 -258 43q-119 61 -119 221zM209 258q0 -82 86 -123q66 -31 156 -31l84 5q0 31 12 278q6 125 6 211q-158 -84 -240 -158q-104 -94 -104 -182z" />
<glyph unicode="&#xa3;" d="M35 555q14 10 96 86q51 49 94 55q-35 197 -69 394q0 45 10 102q16 0 36.5 4t35.5 8l6 -147q0 -88 28 -180q43 -135 86 -271q12 -8 27 -6q25 4 42 39t26 43q39 0 52 -8t13 -53q-33 -43 -63 -84q-20 -20 -54 -27q-18 -2 -34 4q0 -39 -23 -111q-51 -162 -51 -188 q0 -35 15.5 -51.5t58.5 -16.5q51 0 137 19.5t131 19.5q39 0 133 -51t164 -51q33 0 115 27q41 12 57 10q-41 -37 -80 -72q-59 -47 -92 -47q-23 0 -170 47q-70 23 -127 23q-96 0 -274.5 -35t-243.5 -35q-2 12 -2 39q0 78 61.5 260t61.5 254l-2 53q-37 0 -91 -71 q-33 -45 -57 -62q-18 0 -35.5 24.5t-17.5 55.5zM141 1200l35 33l-10 -41z" />
<glyph unicode="&#xa4;" horiz-adv-x="1024" d="M37 373q-16 16 20 61q16 20 39 43l35 33q-35 82 -35 180q0 74 25.5 167t73.5 177q-76 80 -104 123t-28 68q0 16 10.5 26.5t28.5 10.5q35 0 93 -52q33 -35 67 -67l4 -10q37 41 81 64.5t93 23.5q29 0 68 -13q57 -20 117 -39q12 -4 39 -4q25 0 47 2t45 4l63 -4q31 25 51 39 q49 33 78 33q15 0 23 -8q12 -12 12 -31q0 -33 -59 -98q29 -49 28 -144q0 -86 -40 -184t-109 -186q63 -72 98 -123q45 -68 45 -109q0 -25 -16 -41t-62 21q-20 16 -43 39l-110 119q-80 -72 -168 -112t-180 -40q-49 0 -93.5 18.5t-74.5 47.5q-76 -51 -121 -52q-25 0 -41 17z M188 690q0 -106 46.5 -181t113.5 -75q170 0 328 131q203 170 203 461q0 39 -97.5 54.5t-302.5 15.5q-121 0 -213 -156q-78 -133 -78 -250z" />
<glyph unicode="&#xa5;" d="M113 1231q0 20 2 31l4 32q61 -20 196 -186q121 -147 213 -147q113 0 357 223q90 84 180 170q10 -12 19.5 -29.5t9.5 -42.5q0 -82 -131 -182q-231 -176 -242 -187q-133 -127 -133 -268l4 -4q31 0 51 2q82 8 90 8q78 0 107 -100q-49 -18 -113.5 -25.5t-132.5 -7.5l10 -104 q29 4 61.5 7t51.5 3q74 0 102 -86q-41 -14 -100.5 -20.5t-106.5 -6.5v-39q0 -94 -18 -151q-25 -80 -90 -121q-27 68 -40 150.5t-13 164.5h-11q-27 0 -49 -4q-78 -14 -86 -14q-33 0 -53 27q-12 14 -31 63q49 14 109.5 20.5t120.5 6.5l2 110q-25 0 -93 -14q-39 -8 -55 -8 q-33 0 -52.5 27.5t-35.5 80.5q102 31 232 31q-20 150 -240 393q-96 106 -96 197z" />
<glyph unicode="&#xa6;" horiz-adv-x="413" d="M184 59q0 102 23.5 299t60.5 209l86 -12q0 -53 -20 -229q-10 -88 -10 -138q0 -20 6 -59t6 -59q0 -49 -21 -76q-31 -39 -106 -51q-25 59 -25 116zM211 834q0 72 22.5 240.5t53.5 178.5l80 -12q0 -45 -9 -113q-18 -152 -18 -188q0 -20 5 -56t5 -42q0 -43 -18 -64 q-27 -31 -99 -41q-23 49 -22 97z" />
<glyph unicode="&#xa7;" horiz-adv-x="1181" d="M86 -217q37 8 73 10t85 2q59 0 161.5 -5t120.5 -5q156 0 287 49q172 63 172 180q0 125 -231 191q-217 43 -432 88q-233 51 -234 139q0 123 188 213q150 72 367 105q-61 10 -192 26q-197 25 -244 41.5t-72.5 55t-25.5 90.5q0 147 264 251q219 86 418 86q80 0 122 -10 q76 -18 101 -61q-133 -18 -266 -37q-221 -35 -355 -78q-178 -57 -178 -129q0 -47 229 -98q346 -78 430 -109q231 -86 232 -215q0 -84 -100 -162q-84 -66 -234 -120q158 -43 242 -95q102 -63 102 -149q0 -147 -317 -264q-272 -100 -477 -101q-88 0 -144 21q-76 27 -92 90z M199 455q0 -31 80 -58q6 -2 366 -84q139 18 223 66q111 62 111 160q0 43 -24.5 76.5t-69.5 60.5q-170 -20 -285 -43q-180 -35 -276 -72q-125 -49 -125 -106z" />
<glyph unicode="&#xa8;" horiz-adv-x="835" d="M143 1509q72 37 99 45q47 17 110 17q0 -61 -18 -109q-25 -66 -76 -65q-37 0 -70 39q-25 29 -45 73zM528 1501q72 37 99 45q47 17 110 17q0 -61 -18 -109q-25 -66 -76 -65q-37 0 -70 38q-25 29 -45 74z" />
<glyph unicode="&#xa9;" horiz-adv-x="1710" d="M96 551q0 166 72 377q80 240 203 383q150 176 323 176q96 0 309.5 -28.5t303.5 -28.5q182 0 243 -107q47 -82 47 -289q0 -408 -258 -727q-295 -365 -776 -364q-229 0 -358 200q-109 170 -109 408zM203 551q0 -176 71 -322q90 -182 246 -182q512 0 778 354 q228 303 228 770q0 94 -93.5 123t-324.5 29q-78 0 -162 -1t-176 -1q-231 0 -408 -274q-160 -248 -159 -496zM299 635q0 197 147 379q156 193 345 192q72 0 131 -57t59 -133q0 -78 -80 -101q-18 61 -35 123q-31 76 -88 76q-133 0 -267 -163t-134 -302q0 -135 104 -207 q90 -61 230 -61q125 0 285.5 60.5t205.5 60.5q39 -1 78 -17q-88 -88 -248 -137t-301 -49q-182 0 -295 72q-137 88 -137 264z" />
<glyph unicode="&#xaa;" horiz-adv-x="778" d="M2 1106q0 96 119 170q106 66 211 65q117 0 151 -161q0 -2 25 -262l-37 -7q-39 0 -54.5 48.5t-27.5 93.5q-88 -51 -119 -68q-82 -41 -129 -41q-57 0 -98 49t-41 113zM84 1094q0 -76 74 -76q70 0 144.5 53t115.5 119q-6 4 -62 55q-37 35 -71 35q-78 0 -139.5 -55.5 t-61.5 -130.5z" />
<glyph unicode="&#xab;" horiz-adv-x="1941" d="M-12 662q225 143 489 356q205 166 461 397q29 -14 52.5 -24.5t66.5 -34.5q-102 -117 -264 -244q-145 -109 -291 -217q-176 -131 -277 -233q143 -76 299 -155t294 -116t280 -74q170 -55 254 -137q-61 -31 -133 -30q-104 0 -263 71q-209 96 -256 109q-123 33 -243 67 q-176 53 -285 109q-143 74 -184 156zM627 662q225 143 489 356q205 166 461 397q29 -14 52.5 -24.5t66.5 -34.5q-102 -117 -264 -244q-145 -109 -291 -217q-176 -131 -277 -233q143 -76 299 -155t294 -116t280 -74q170 -55 254 -137q-61 -31 -133 -30q-104 0 -263 71 q-209 96 -256 109q-123 33 -243 67q-176 53 -285 109q-143 74 -184 156z" />
<glyph unicode="&#xac;" horiz-adv-x="2457" d="M80 -170v1567h2300v-1567h-2300zM127 -88v-35h317v35h-34q-39 0 -52 4q-33 12 -32 80l2 328q35 0 71.5 -1t73.5 -1l10 51l-4 4h-151v74v51q0 66 17 102.5t73 36.5q35 0 59 -18l23 -111h59q55 164 117 319q45 117 133 318q18 -53 119 -315q76 -201 110 -322h62 q31 125 110 406q94 328 123 370q15 8 60 8v37h-244v-37q29 0 65.5 -5t36.5 -21q0 -51 -77 -316l-82 -266l-238 651h-29l-250 -645q-33 137 -65.5 282.5t-56.5 268.5q-8 12 -7 21q0 20 31 25t45 5h25v37h-293v-37q53 0 66.5 -13t25.5 -73q20 -88 45 -180q57 -215 66 -305 q-47 0 -120 -66.5t-95 -117.5q-8 -20 -11.5 -43t-3.5 -62v-61l-82 -41v-21l82 9l2 -314q0 -66 -17 -81t-85 -15zM440 150q0 -121 70 -203t188 -82q131 0 215 84t84 215q0 115 -73.5 186.5t-190.5 71.5q-125 0 -209 -74t-84 -198zM553 188q0 80 39 139.5t115 59.5 q98 0 145 -92q37 -71 37 -180q0 -84 -33 -142q-41 -70 -121 -69q-94 0 -143 100q-39 78 -39 184zM973 -88v-35h295l-2 35q-61 0 -81 17.5t-20 64.5q0 12 2 48t2 60v58q0 94 21 131q33 57 129 57q78 0 108 -47q25 -39 25 -127v-111v-24q0 -90 -8 -162h198v35q-59 0 -75.5 10 t-16.5 47q2 41 2 68v188q0 197 -190 197q-51 0 -102.5 -31t-88.5 -78q2 37 3 56q0 33 -11 53q-47 -20 -94 -32.5t-96 -12.5v-35q23 2 35 2q27 0 44 -7t17 -28v-352q0 -23 -10 -35t-43 -12q-29 2 -43 2zM1311 1090q0 -178 236.5 -201t236.5 -154q0 -86 -65.5 -131t-155.5 -45 q-53 0 -107 16q-72 23 -86 60l-2 98h-39v-67v-29q0 -41 -6 -82q104 -43 217 -43q55 0 105 12q10 -82 10 -147q-39 -23 -92 -39v-25h92v-321q0 -127 131 -127q16 0 36.5 4t37.5 8l55 70l-17 22q-27 -31 -65 -30q-39 0 -60.5 28.5t-21.5 108.5v26v222q16 0 52 2t52 2 q31 0 60 -6l12 55h-176q0 49 2 99t8 95q57 47 86 91q37 55 37 118q0 180 -235.5 200.5t-235.5 152.5q0 78 55.5 120.5t137.5 42.5q39 0 90 -15t78 -38q10 -23 10 -69v-41h37q0 61 3 87.5t15 75.5q-109 43 -227 43q-127 0 -209 -59q-92 -68 -92 -190zM1858 522h327v37h-33 q-43 0 -59 10.5t-16 55.5v512q0 20 -1 40.5t-1 39.5q0 49 19.5 64t90.5 15v37h-327v-37q76 0 92 -14t16 -76v-49v-528q0 -45 -19.5 -57.5t-60.5 -12.5h-28v-37zM1927 254q0 -109 159 -139.5t159 -104.5q0 -51 -37 -78.5t-90 -27.5q-86 0 -117 30.5t-31 114.5h-33 q0 -23 -4 -77t-4 -60q0 -20 46 -33.5t122 -13.5q96 0 162 45q78 53 78 145q0 102 -160 135t-160 103q0 43 32 68.5t77 25.5q33 0 63.5 -15.5t55.5 -43.5q6 -29 8 -35q2 -12 2 -37l33 -2q0 35 6 77t8 64q-86 27 -164 27q-90 0 -145 -37q-66 -45 -66 -131z" />
<glyph unicode="&#xad;" horiz-adv-x="1036" d="M59 662q76 16 175.5 23t201.5 7h154q33 0 100.5 6.5t102.5 6.5q61 0 95.5 -23t57.5 -82q-70 -20 -137.5 -27.5t-159.5 -7.5q-66 0 -133 2t-133 4q-33 0 -125 -14q-53 -8 -74 -8q-49 0 -80 33q-23 25 -45 80z" />
<glyph unicode="&#xae;" horiz-adv-x="1710" d="M96 551q0 166 72 377q80 240 203 383q150 176 323 176q96 0 309.5 -28.5t303.5 -28.5q182 0 243 -107q47 -82 47 -289q0 -408 -258 -727q-295 -365 -776 -364q-229 0 -358 200q-109 170 -109 408zM203 551q0 -176 71 -322q90 -182 246 -182q512 0 778 354 q228 303 228 770q0 94 -93.5 123t-324.5 29q-78 0 -162 -1t-176 -1q-231 0 -408 -274q-160 -248 -159 -496zM483 870q0 205 58 271q45 51 176 51q20 0 73.5 -2t88.5 -2q109 0 161 -17q98 -31 99 -118q0 -117 -170 -250q-8 -6 -269 -174q225 -113 349 -182.5t147 -116.5 l-63 -6q-94 0 -189 51q-209 115 -305 114q-31 0 -68 -10q6 -37 12.5 -75.5t6.5 -73.5q0 -47 -17 -62q-29 -27 -30 -30l8 10q-8 8 -21 12q-12 4 -24 2q-12 131 -17.5 284.5t-5.5 323.5zM575 860q0 -76 17 -162q195 92 256 131q148 94 199 211q-74 35 -123 50q-66 20 -129 20 q-119 0 -169.5 -58.5t-50.5 -191.5z" />
<glyph unicode="&#xaf;" horiz-adv-x="770" d="M121 1399q53 12 121.5 16t134.5 4h115q23 0 80 4t61 4q79 1 106 -71q-49 -14 -115.5 -19.5t-88.5 -5.5q-29 0 -92.5 2t-96.5 2q-25 0 -70 -8t-67 -8q-35 0 -53.5 19.5t-34.5 60.5z" />
<glyph unicode="&#xb0;" horiz-adv-x="747" d="M150 977q0 82 80.5 136t166.5 54q59 0 103.5 -35t44.5 -94q0 -74 -99 -112q-74 -29 -161 -29q-57 0 -86 12q-49 20 -49 68zM205 989q0 -25 37 -35t73 -10q57 0 113 19q76 24 76 71q0 35 -31 63.5t-65 28.5q-41 0 -122 -51t-81 -86z" />
<glyph unicode="&#xb1;" horiz-adv-x="1036" d="M41 813q242 47 254 53q106 49 106 217q0 82 10.5 142.5t41.5 156.5q18 -43 36.5 -89t18.5 -85q0 -37 -17.5 -100.5t-17.5 -87.5q0 -86 80 -86q37 0 133 27q53 14 78 14q51 0 103.5 -14t103.5 -41q-203 -41 -404 -80q-86 -47 -86 -336q0 -51 -11 -88t-42 -66 q-31 80 -47 215q-23 178 -31 217q-84 -25 -127 -34q-84 -23 -127 -23q-20 0 -39 18zM76 236q82 12 182 17t211 5h131q41 0 112.5 5t88.5 5q112 0 151 -82q-61 -14 -145 -20t-154 -6q-43 0 -129 2t-129 2q-33 0 -98.5 -8.5t-97.5 -8.5q-47 0 -74 24t-49 65z" />
<glyph unicode="&#xb2;" horiz-adv-x="534" d="M-39 946q10 33 236 221q90 76 90 170q0 27 -11.5 43.5t-39.5 16.5q-33 0 -89 -23q-127 -51 -141 -51q23 66 86.5 113t134.5 47q55 0 96.5 -26.5t41.5 -80.5q0 -47 -41 -129q-49 -90 -66 -121q35 0 101.5 2t99.5 2l20 -10l15 -39l-117 -32q-35 0 -63.5 -1t-69.5 -14 q-23 -6 -138 -53q-84 -35 -145 -35z" />
<glyph unicode="&#xb3;" horiz-adv-x="528" d="M-47 961q0 18 16 43q49 -47 130 -78t151 -31t109.5 30.5t39.5 100.5q0 53 -33.5 87t-84.5 34q-33 0 -92.5 -27.5t-77.5 -27.5q-8 0 -24.5 5t-29.5 11q133 119 267 240q-20 6 -37 10t-29 4q-27 0 -69 -14.5t-87 -28.5q-18 0 -27 15.5t-18 43.5q63 23 101 35q82 27 168 27 q37 0 58.5 -9.5t21.5 -39.5q0 -29 -46 -113l-36 -66q57 -27 102 -86t45 -120q0 -82 -96 -121q-74 -31 -170 -31q-76 0 -148 20q-104 31 -104 87z" />
<glyph unicode="&#xb4;" horiz-adv-x="745" d="M217 1241q27 78 72 160q53 90 145 198q39 46 166 185q6 -16 8 -42t2 -30q0 -47 -15 -95t-42 -93q-53 -92 -147.5 -175t-188.5 -108z" />
<glyph unicode="&#xb5;" horiz-adv-x="1036" d="M72 401q0 139 32 279q45 190 134 223l6 -80q0 -70 -15 -168q-33 -227 -32 -284q0 -123 43 -189q51 -78 168 -78q135 0 231 193q35 68 137 377q74 223 139 260q20 -74 21 -160q0 -51 -11.5 -170t-11.5 -155q0 -82 33 -170.5t68 -176.5q0 -39 -47 -67q-29 -18 -80 -33 q-57 117 -64 131q-29 63 -53 139q-80 -117 -168 -188q-113 -92 -227 -92h-23q-20 0 -53 2t-61 8q0 -98 15 -163.5t15 -114.5q0 -18 -8 -43q-23 -66 -22 -93q-82 39 -115 211q-16 193 -31 385q-8 27 -14 78t-6 139z" />
<glyph unicode="&#xb6;" horiz-adv-x="1351" d="M182 987q0 141 150 199q96 37 268 37q104 0 212 -12.5t241 -36.5q-47 -170 -92 -338q0 -66 34 -119q29 -45 88 -88q-72 -63 -97 -159.5t-25 -217.5l4 -252q-70 16 -96.5 61t-26.5 123q0 33 7 105.5t7 101.5q0 47 -4 72.5t-25 60.5q-33 59 -206 101q-219 51 -289 92 q-150 88 -150 270zM281 967q0 -115 151 -199q133 -74 256 -74q72 0 111 29q47 34 47 104q0 178 -76 236q-63 47 -248 47q-88 0 -153 -29q-88 -39 -88 -114zM1094 211q0 201 20 528q29 444 64 471q20 -4 49 -14t39 -12q0 -109 -21 -451q-10 -172 -10 -270q0 -57 2 -86 q10 -145 10 -150q0 -98 -20 -149q-31 -74 -109 -98q-25 115 -24 231z" />
<glyph unicode="&#xb7;" horiz-adv-x="491" d="M166 721q72 37 98 45q48 16 111 16q0 -61 -19 -108q-25 -66 -75 -66q-37 0 -70 39q-25 29 -45 74z" />
<glyph unicode="&#xb8;" horiz-adv-x="565" d="M25 -623q162 76 219 117q113 80 112 172q0 43 -65.5 119t-65.5 109l45 67q86 -47 130 -117.5t44 -152.5q0 -127 -90 -217q-100 -100 -266 -101h-25q-14 0 -38 4z" />
<glyph unicode="&#xb9;" horiz-adv-x="202" d="M8 1229q0 51 8.5 82.5t42.5 48.5q8 -35 10.5 -67.5t2.5 -78.5q0 -27 -1 -53t-1 -53q0 -39 7 -120.5t7 -108.5q0 -57 -10 -91q-16 -53 -62 -59z" />
<glyph unicode="&#xba;" horiz-adv-x="622" d="M2 1069q0 109 115 186q104 70 219 70q80 0 140.5 -47t60.5 -127q0 -98 -136 -152q-104 -41 -219 -41q-72 0 -114 19q-66 29 -66 92zM78 1083q0 -33 59 -49q39 -10 88 -10q78 0 152 25q102 35 102 96q0 47 -40 85t-89 38q-55 0 -163.5 -69t-108.5 -116z" />
<glyph unicode="&#xbb;" horiz-adv-x="1785" d="M23 59q43 104 235 232q186 115 375 231q221 147 309 291q-180 115 -248 160q-150 100 -243 186q-121 109 -193 223q33 29 76 29q27 0 143 -84q6 -4 234 -174q156 -115 207 -145q78 -43 122 -80q76 -64 76 -119q0 -76 -246 -268q-199 -156 -479 -326q-268 -162 -321 -162z M655 59q43 104 236 232q186 115 375 231q221 147 309 291q-180 115 -248 160q-150 100 -244 186q-121 109 -192 223q33 29 76 29q27 0 143 -84q6 -4 233 -174q156 -115 207 -145q78 -43 123 -80q76 -64 76 -119q0 -76 -246 -268q-199 -156 -479 -326q-268 -162 -322 -162z " />
<glyph unicode="&#xbc;" horiz-adv-x="1433" d="M12 -59q14 74 68 151q41 59 110 125q137 131 269 326q74 109 217 354.5t227 366.5q55 -49 55 -121q0 -49 -151 -301q-137 -227 -303 -469q-172 -250 -231.5 -302.5t-123 -87t-137.5 -42.5zM254 1239q0 51 8 83t43 48q8 -35 10 -67.5t2 -77.5q0 -27 -1 -53.5t-1 -53.5 q0 -39 7.5 -120.5t7.5 -108.5q0 -57 -11 -90q-16 -53 -61 -60zM709 274q8 43 45 76t73 64l267 270l45 -14v-211q0 -61 61.5 -85t71.5 -38q-45 -8 -90 -17q-43 -16 -43 -71q0 -27 5 -70t5 -53q0 -35 -21.5 -47t-62.5 -12l6 133q0 47 -6 65q-12 39 -49 39q-35 0 -106.5 -16.5 t-110.5 -16.5h-35q-14 0 -30.5 2t-24.5 2zM858 354q37 -14 84 -14q53 0 81 20.5t28 73.5q0 43 -15 82q-41 -29 -92 -78q-43 -43 -86 -84z" />
<glyph unicode="&#xbd;" horiz-adv-x="1454" d="M37 -59q14 74 67 151q41 59 111 125q137 131 268 326q74 109 217.5 354.5t227.5 366.5q55 -49 55 -121q0 -49 -152 -301q-137 -227 -303 -469q-172 -250 -231 -302.5t-122.5 -87t-137.5 -42.5zM274 1249q0 51 8.5 83t43.5 48q8 -35 10 -67.5t2 -77.5q0 -27 -1 -53.5 t-1 -53.5q0 -39 7 -120.5t7 -108.5q0 -57 -10 -90q-16 -53 -61 -59zM872 168q10 33 236 221q90 76 90 170q0 27 -11 43t-40 16q-33 0 -88 -22q-127 -51 -141 -51q23 66 86 113t135 47q55 0 96 -27t41 -80q0 -47 -41 -129q-49 -90 -66 -121q35 0 101.5 2t99.5 2l21 -10 l14 -39l-117 -33q-35 0 -63.5 -1t-69.5 -13q-23 -6 -137 -53q-84 -35 -146 -35z" />
<glyph unicode="&#xbe;" horiz-adv-x="1484" d="M104 -59q14 74 68 151q41 59 111 125q137 131 268 326q74 109 217 354.5t227 366.5q56 -49 56 -121q0 -49 -152 -301q-137 -227 -303 -469q-172 -250 -231.5 -302.5t-123 -87t-137.5 -42.5zM117 950q0 18 16 43q49 -47 130 -77.5t151 -30.5t109.5 30.5t39.5 100.5 q0 53 -33.5 87t-85.5 34q-33 0 -92 -28t-78 -28q-8 0 -24.5 5.5t-28.5 11.5q133 119 266 239q-20 6 -36.5 10.5t-28.5 4.5q-27 0 -69 -14.5t-87 -28.5q-18 0 -27.5 15t-17.5 44q63 23 101 35q82 27 167 27q37 0 58.5 -9.5t21.5 -40.5q0 -29 -45 -112q-18 -33 -37 -66 q57 -27 102.5 -86.5t45.5 -120.5q0 -82 -96 -121q-74 -31 -170 -30q-76 0 -148 20q-104 31 -104 86zM709 274q8 43 45 76t73 64l267 270l45 -14v-211q0 -61 61.5 -85t71.5 -38q-45 -8 -90 -17q-43 -16 -43 -71q0 -27 5 -70t5 -53q0 -35 -21.5 -47t-62.5 -12l6 133 q0 47 -6 65q-12 39 -49 39q-35 0 -106.5 -16.5t-110.5 -16.5h-35q-14 0 -30.5 2t-24.5 2zM858 354q37 -14 84 -14q53 0 81 20.5t28 73.5q0 43 -15 82q-41 -29 -92 -78q-43 -43 -86 -84z" />
<glyph unicode="&#xbf;" horiz-adv-x="1093" d="M137 209q0 139 176 291q66 57 328 229q176 117 176 168q0 37 -65 107q-49 47 -97 96q150 -14 228 -70q68 -49 67 -121q0 -100 -170 -223q-158 -104 -315 -209q-170 -125 -170 -227q0 -78 121 -117q90 -29 186 -29q41 0 94 7q127 14 156 14q82 0 127 -30.5t65 -108.5 q-37 0 -132 -2t-115 -2q-365 0 -523 65q-137 57 -137 162zM745 1432l121 28l2 -59q0 -12 -12 -43q-4 -10 -20 -47l-31 28q-45 10 -49 44t-11 49z" />
<glyph unicode="&#xc0;" horiz-adv-x="1124" d="M115 70q0 68 30 149q12 33 39 86q68 135 138 328q12 37 182 569q80 -66 227 -328q127 -227 248.5 -497.5t144.5 -376.5q-82 25 -137 106q-68 100 -117 132q-106 66 -327 65q-209 0 -287 -119q-92 -141 -139 -155zM115 1620q35 29 86 29q104 0 248 -105q126 -92 198 -194 q-178 18 -296 73q-145 68 -236 197zM385 451q49 -10 115.5 -20.5t115.5 -10.5q53 0 93.5 6.5t91.5 24.5q-53 154 -109 254q-63 117 -157 227q-59 -141 -91 -236q-39 -121 -59 -245z" />
<glyph unicode="&#xc1;" horiz-adv-x="1124" d="M115 70q0 68 30 149q12 33 39 86q68 135 138 328q12 37 182 569q80 -66 227 -328q127 -227 248.5 -497.5t144.5 -376.5q-82 25 -137 106q-68 100 -117 132q-106 66 -327 65q-209 0 -287 -119q-92 -141 -139 -155zM385 451q49 -10 115.5 -20.5t115.5 -10.5q53 0 93.5 6.5 t91.5 24.5q-53 154 -109 254q-63 117 -157 227q-59 -141 -91 -236q-39 -121 -59 -245zM539 1376q27 78 72 160q53 90 145 198q39 46 166 185q6 -16 8 -42t2 -30q0 -47 -15 -95t-42 -93q-53 -92 -147.5 -175t-188.5 -108z" />
<glyph unicode="&#xc2;" horiz-adv-x="1124" d="M115 70q0 68 30 149q12 33 39 86q68 135 138 328q12 37 182 569q80 -66 227 -328q127 -227 248.5 -497.5t144.5 -376.5q-82 25 -137 106q-68 100 -117 132q-106 66 -327 65q-209 0 -287 -119q-92 -141 -139 -155zM164 1224q0 43 15.5 82t46.5 82q53 80 145 211 q123 174 151.5 182.5t43.5 12.5l172 -230q116 -155 116 -239l-6 -43q-86 25 -153 112q-180 233 -199 244q-133 -244 -174 -295q-80 -100 -158 -119zM385 451q49 -10 115.5 -20.5t115.5 -10.5q53 0 93.5 6.5t91.5 24.5q-53 154 -109 254q-63 117 -157 227q-59 -141 -91 -236 q-39 -121 -59 -245z" />
<glyph unicode="&#xc3;" horiz-adv-x="1124" d="M115 70q0 68 30 149q12 33 39 86q68 135 138 328q12 37 182 569q80 -66 227 -328q127 -227 248.5 -497.5t144.5 -376.5q-82 25 -137 106q-68 100 -117 132q-106 66 -327 65q-209 0 -287 -119q-92 -141 -139 -155zM115 1321q0 90 70 174q78 92 184 92q33 0 215 -98 q88 -47 162 -47q70 0 160 63q57 47 82 64q8 -22 8 -53q0 -84 -80 -133q-70 -43 -176 -43q-137 0 -230.5 72.5t-119.5 72.5q-47 0 -142 -92q-55 -53 -133 -72zM385 451q49 -10 115.5 -20.5t115.5 -10.5q53 0 93.5 6.5t91.5 24.5q-53 154 -109 254q-63 117 -157 227 q-59 -141 -91 -236q-39 -121 -59 -245z" />
<glyph unicode="&#xc4;" horiz-adv-x="1124" d="M115 70q0 68 30 149q12 33 39 86q68 135 138 328q12 37 182 569q80 -66 227 -328q127 -227 248.5 -497.5t144.5 -376.5q-82 25 -137 106q-68 100 -117 132q-106 66 -327 65q-209 0 -287 -119q-92 -141 -139 -155zM225 1400q72 37 99 45q47 17 110 17q0 -61 -18 -109 q-25 -66 -76 -65q-37 0 -70 39q-25 29 -45 73zM385 451q49 -10 115.5 -20.5t115.5 -10.5q53 0 93.5 6.5t91.5 24.5q-53 154 -109 254q-63 117 -157 227q-59 -141 -91 -236q-39 -121 -59 -245zM610 1392q72 37 99 45q47 17 110 17q0 -61 -18 -109q-25 -66 -76 -65 q-37 0 -70 38q-25 29 -45 74z" />
<glyph unicode="&#xc5;" horiz-adv-x="1124" d="M115 70q0 68 30 149q12 33 39 86q68 135 138 328q12 37 182 569q80 -66 227 -328q127 -227 248.5 -497.5t144.5 -376.5q-82 25 -137 106q-68 100 -117 132q-106 66 -327 65q-209 0 -287 -119q-92 -141 -139 -155zM316 1423q0 100 101.5 168.5t207.5 68.5q76 0 130 -42.5 t54 -118.5q0 -90 -123 -140q-94 -37 -202 -36q-88 0 -128 26.5t-40 73.5zM385 451q49 -10 115.5 -20.5t115.5 -10.5q53 0 93.5 6.5t91.5 24.5q-53 154 -109 254q-63 117 -157 227q-59 -141 -91 -236q-39 -121 -59 -245zM385 1437q0 -29 49.5 -43t88.5 -14q72 0 139 22 q94 33 94 90q0 45 -37 80t-80 35q-51 0 -152.5 -63.5t-101.5 -106.5z" />
<glyph unicode="&#xc6;" horiz-adv-x="1642" d="M-127 29l16 41q16 43 50 90q41 61 120 145q117 127 248 291q111 139 230 301q111 152 223 305q23 -29 41 -94q39 49 152.5 72.5t312.5 23.5l229 -2q-72 -74 -250 -97.5t-235 -62.5q-111 -76 -111 -297q0 -86 62 -122q47 -29 139 -29q51 0 227 24q88 12 139 13 q-47 -53 -333 -117q-231 -51 -232 -215q0 -96 60 -141q51 -39 149 -39q102 0 250.5 31.5t281.5 60.5q-92 -109 -272 -164q-152 -47 -321 -47h-29q-98 0 -150 14l-2 -14q-49 16 -108 176q-47 127 -344 127q-209 0 -336 -119q-152 -141 -207 -155zM322 451q49 -12 108 -21.5 t111 -9.5q96 0 196 31v71q0 145 -10 230.5t-51 179.5q-160 -190 -236 -295q-55 -76 -118 -186z" />
<glyph unicode="&#xc7;" horiz-adv-x="1421" d="M115 440q0 260 196 504q207 258 459 258q96 0 174 -77.5t78 -176.5q0 -106 -104 -135q-25 82 -48 164q-43 102 -116 102q-178 0 -357.5 -217t-179.5 -403q0 -182 139 -277q121 -82 308 -82q164 0 377.5 81t277.5 81q51 1 102 -22q-121 -117 -342 -187q-197 -61 -389 -61 q-244 0 -395 98q-180 117 -180 350zM406 -623q162 76 219 117q113 80 112 172q0 43 -65.5 119t-65.5 109l45 67q86 -47 130 -117.5t44 -152.5q0 -127 -90 -217q-100 -100 -266 -101h-25q-14 0 -38 4z" />
<glyph unicode="&#xc8;" horiz-adv-x="976" d="M117 240v813q0 100 202 135q98 16 281 16l229 -2q-72 -74 -250 -97.5t-235 -62.5q-111 -76 -111 -297q0 -86 62 -122q47 -29 139 -29q51 0 228 24q88 12 139 13q-47 -53 -334 -117q-231 -51 -231 -215q0 -96 59 -141q51 -39 149 -39q102 0 251 31.5t282 60.5 q-92 -109 -272 -164q-152 -47 -322 -47t-213 33q-53 41 -53 207zM117 1628q35 29 86 29q104 0 248 -105q126 -92 198 -194q-178 18 -296 73q-145 68 -236 197z" />
<glyph unicode="&#xc9;" horiz-adv-x="976" d="M117 240v813q0 100 202 135q98 16 281 16l229 -2q-72 -74 -250 -97.5t-235 -62.5q-111 -76 -111 -297q0 -86 62 -122q47 -29 139 -29q51 0 228 24q88 12 139 13q-47 -53 -334 -117q-231 -51 -231 -215q0 -96 59 -141q51 -39 149 -39q102 0 251 31.5t282 60.5 q-92 -109 -272 -164q-152 -47 -322 -47t-213 33q-53 41 -53 207zM528 1384q27 78 72 160q53 90 145 198q39 46 166 185q6 -16 8 -42t2 -30q0 -47 -15 -95t-42 -93q-53 -92 -147.5 -175t-188.5 -108z" />
<glyph unicode="&#xca;" horiz-adv-x="976" d="M117 240v813q0 100 202 135q98 16 281 16l229 -2q-72 -74 -250 -97.5t-235 -62.5q-111 -76 -111 -297q0 -86 62 -122q47 -29 139 -29q51 0 228 24q88 12 139 13q-47 -53 -334 -117q-231 -51 -231 -215q0 -96 59 -141q51 -39 149 -39q102 0 251 31.5t282 60.5 q-92 -109 -272 -164q-152 -47 -322 -47t-213 33q-53 41 -53 207zM172 1296q0 43 15.5 82t46.5 82q53 80 145 211q123 174 151.5 182.5t43.5 12.5l172 -230q116 -155 116 -239l-6 -43q-86 25 -153 112q-180 233 -199 244q-133 -244 -174 -295q-80 -100 -158 -119z" />
<glyph unicode="&#xcb;" horiz-adv-x="976" d="M117 240v813q0 100 202 135q98 16 281 16l229 -2q-72 -74 -250 -97.5t-235 -62.5q-111 -76 -111 -297q0 -86 62 -122q47 -29 139 -29q51 0 228 24q88 12 139 13q-47 -53 -334 -117q-231 -51 -231 -215q0 -96 59 -141q51 -39 149 -39q102 0 251 31.5t282 60.5 q-92 -109 -272 -164q-152 -47 -322 -47t-213 33q-53 41 -53 207zM229 1476q72 37 99 45q47 17 110 17q0 -61 -18 -109q-25 -66 -76 -65q-37 0 -70 39q-25 29 -45 73zM614 1468q72 37 99 45q47 17 110 17q0 -61 -18 -109q-25 -66 -76 -65q-37 0 -70 38q-25 29 -45 74z" />
<glyph unicode="&#xcc;" horiz-adv-x="858" d="M86 29q78 23 117 32q72 20 114 39q82 35 111 351q14 160 14 413q0 94 -5 151.5t-23 127.5q-84 -20 -168 -39q-31 0 -68 12q-14 4 -61 25q49 80 168 112q90 25 211 25q172 0 362 -45q-72 -20 -106 -29q-66 -18 -109 -34.5t-62.5 -64.5t-19.5 -112q0 -82 -24 -356 q-12 -137 -13 -215q0 -190 29 -225q37 -45 215 -45q-45 -84 -219 -144q-150 -51 -268 -51q-68 0 -107 10q-61 16 -88 62zM86 1692q35 29 86 29q104 0 248 -105q126 -92 198 -194q-178 18 -296 73q-145 68 -236 197z" />
<glyph unicode="&#xcd;" horiz-adv-x="858" d="M86 29q78 23 117 32q72 20 114 39q82 35 111 351q14 160 14 413q0 94 -5 151.5t-23 127.5q-84 -20 -168 -39q-31 0 -68 12q-14 4 -61 25q49 80 168 112q90 25 211 25q172 0 362 -45q-72 -20 -106 -29q-66 -18 -109 -34.5t-62.5 -64.5t-19.5 -112q0 -82 -24 -356 q-12 -137 -13 -215q0 -190 29 -225q37 -45 215 -45q-45 -84 -219 -144q-150 -51 -268 -51q-68 0 -107 10q-61 16 -88 62zM410 1477q27 78 72 160q53 90 145 198q39 46 166 185q6 -16 8 -42t2 -30q0 -47 -15 -95t-42 -93q-53 -92 -147.5 -175t-188.5 -108z" />
<glyph unicode="&#xce;" horiz-adv-x="858" d="M86 29q78 23 117 32q72 20 114 39q82 35 111 351q14 160 14 413q0 94 -5 151.5t-23 127.5q-84 -20 -168 -39q-31 0 -68 12q-14 4 -61 25q49 80 168 112q90 25 211 25q172 0 362 -45q-72 -20 -106 -29q-66 -18 -109 -34.5t-62.5 -64.5t-19.5 -112q0 -82 -24 -356 q-12 -137 -13 -215q0 -190 29 -225q37 -45 215 -45q-45 -84 -219 -144q-150 -51 -268 -51q-68 0 -107 10q-61 16 -88 62zM133 1341q0 43 15.5 82t46.5 82q53 80 145 211q123 174 151.5 182.5t43.5 12.5l172 -230q116 -155 116 -239l-6 -43q-86 25 -153 112 q-180 233 -199 244q-133 -244 -174 -295q-80 -100 -158 -119z" />
<glyph unicode="&#xcf;" horiz-adv-x="858" d="M86 29q78 23 117 32q72 20 114 39q82 35 111 351q14 160 14 413q0 94 -5 151.5t-23 127.5q-84 -20 -168 -39q-31 0 -68 12q-14 4 -61 25q49 80 168 112q90 25 211 25q172 0 362 -45q-72 -20 -106 -29q-66 -18 -109 -34.5t-62.5 -64.5t-19.5 -112q0 -82 -24 -356 q-12 -137 -13 -215q0 -190 29 -225q37 -45 215 -45q-45 -84 -219 -144q-150 -51 -268 -51q-68 0 -107 10q-61 16 -88 62zM206 1503q72 37 99 45q47 17 110 17q0 -61 -18 -109q-25 -66 -76 -65q-37 0 -70 39q-25 29 -45 73zM591 1495q72 37 99 45q47 17 110 17 q0 -61 -18 -109q-25 -66 -76 -65q-37 0 -70 38q-25 29 -45 74z" />
<glyph unicode="&#xd0;" horiz-adv-x="1243" d="M59 674q88 20 191 20q0 55 -6 166t-6 164q0 70 -37 131q-6 10 -84 111q92 23 194.5 33t202.5 10q291 0 465 -86q235 -117 235 -379q0 -369 -288 -611q-270 -225 -643 -225q-106 0 -195 23q100 66 105 69q76 61 75 172q0 55 -6 168t-6 170q-16 0 -72 -10q-23 -4 -41 -4 q-33 0 -51 19.5t-33 58.5zM354 416q0 -82 6.5 -150.5t22.5 -144.5q315 57 494 198q221 177 221 476q0 193 -144 307q-133 106 -327 106q-55 0 -94 -9t-77 -39t-54.5 -74t-16.5 -93t-8 -147t-8 -150h47q23 0 67.5 4.5t69.5 4.5q76 0 104 -74q-45 -12 -90 -17.5t-106 -5.5 h-49.5t-49.5 2q0 -33 -4 -110.5t-4 -83.5z" />
<glyph unicode="&#xd1;" horiz-adv-x="1036" d="M92 893q0 74 36 111.5t108 50.5q33 -117 273.5 -417t348.5 -368q10 53 12 96.5t2 112.5q0 80 -2 129q-8 199 -8 217q0 102 11.5 186.5t44.5 162.5l28 -31h31v-602q0 -53 20 -230q11 -88 11 -137q0 -51 -6.5 -89t-24.5 -85q-98 47 -236 182q-104 102 -243 267 q-102 121 -205 243q-14 -66 -14 -141q0 -57 20 -236q10 -90 10 -141q0 -59 -3 -80.5t-13 -62.5q-47 12 -66 20q-41 16 -57 39q-8 10 -43 380t-35 423zM92 1237q0 90 70 174q78 92 184 92q33 0 215 -98q88 -47 162 -47q70 0 160 63q57 47 82 64q8 -22 8 -53q0 -84 -80 -133 q-70 -43 -176 -43q-137 0 -230.5 72.5t-119.5 72.5q-47 0 -142 -92q-55 -53 -133 -72z" />
<glyph unicode="&#xd2;" horiz-adv-x="1183" d="M66 371q0 223 217 462.5t438 239.5q186 0 321.5 -139.5t135.5 -327.5q0 -227 -256 -399q-229 -154 -467 -154q-154 0 -265 78q-125 88 -124 240zM203 391q0 -104 52 -174t155 -70q207 0 428 134q252 151 252 348q0 119 -102.5 237.5t-217.5 118.5q-70 0 -133 -43 q-53 -37 -102 -100q-12 -16 -218 -166q-115 -84 -114 -285zM213 1454q35 29 86 29q104 0 248 -105q126 -92 198 -194q-178 18 -296 73q-145 68 -236 197z" />
<glyph unicode="&#xd3;" horiz-adv-x="1183" d="M66 371q0 223 217 462.5t438 239.5q186 0 321.5 -139.5t135.5 -327.5q0 -227 -256 -399q-229 -154 -467 -154q-154 0 -265 78q-125 88 -124 240zM203 391q0 -104 52 -174t155 -70q207 0 428 134q252 151 252 348q0 119 -102.5 237.5t-217.5 118.5q-70 0 -133 -43 q-53 -37 -102 -100q-12 -16 -218 -166q-115 -84 -114 -285zM737 1221q27 78 72 160q53 90 145 198q39 46 166 185q6 -16 8 -42t2 -30q0 -47 -15 -95t-42 -93q-53 -92 -147.5 -175t-188.5 -108z" />
<glyph unicode="&#xd4;" horiz-adv-x="1183" d="M66 371q0 223 217 462.5t438 239.5q186 0 321.5 -139.5t135.5 -327.5q0 -227 -256 -399q-229 -154 -467 -154q-154 0 -265 78q-125 88 -124 240zM203 391q0 -104 52 -174t155 -70q207 0 428 134q252 151 252 348q0 119 -102.5 237.5t-217.5 118.5q-70 0 -133 -43 q-53 -37 -102 -100q-12 -16 -218 -166q-115 -84 -114 -285zM379 1134q0 43 15.5 82t46.5 82q53 80 145 211q123 174 151.5 182.5t43.5 12.5l172 -230q116 -155 116 -239l-6 -43q-86 25 -153 112q-180 233 -199 244q-133 -244 -174 -295q-80 -100 -158 -119z" />
<glyph unicode="&#xd5;" horiz-adv-x="1183" d="M66 371q0 223 217 462.5t438 239.5q186 0 321.5 -139.5t135.5 -327.5q0 -227 -256 -399q-229 -154 -467 -154q-154 0 -265 78q-125 88 -124 240zM203 391q0 -104 52 -174t155 -70q207 0 428 134q252 151 252 348q0 119 -102.5 237.5t-217.5 118.5q-70 0 -133 -43 q-53 -37 -102 -100q-12 -16 -218 -166q-115 -84 -114 -285zM258 1196q0 90 70 174q78 92 184 92q33 0 215 -98q88 -47 162 -47q70 0 160 63q57 47 82 64q8 -22 8 -53q0 -84 -80 -133q-70 -43 -176 -43q-137 0 -230.5 72.5t-119.5 72.5q-47 0 -142 -92q-55 -53 -133 -72z" />
<glyph unicode="&#xd6;" horiz-adv-x="1183" d="M66 371q0 223 217 462.5t438 239.5q186 0 321.5 -139.5t135.5 -327.5q0 -227 -256 -399q-229 -154 -467 -154q-154 0 -265 78q-125 88 -124 240zM203 391q0 -104 52 -174t155 -70q207 0 428 134q252 151 252 348q0 119 -102.5 237.5t-217.5 118.5q-70 0 -133 -43 q-53 -37 -102 -100q-12 -16 -218 -166q-115 -84 -114 -285zM428 1296q72 37 99 45q47 17 110 17q0 -61 -18 -109q-25 -66 -76 -65q-37 0 -70 39q-25 29 -45 73zM813 1288q72 37 99 45q47 17 110 17q0 -61 -18 -109q-25 -66 -76 -65q-37 0 -70 38q-25 29 -45 74z" />
<glyph unicode="&#xd7;" horiz-adv-x="1036" d="M111 342q41 94 168 254q80 98 108 147q-33 20 -96 56q-111 61 -156 106q-16 16 -16 47l39 66q84 -61 169 -119.5t150 -58.5q88 0 187 98q66 66 129 109q51 35 147 83q-31 -84 -37 -96q-23 -53 -55 -86q-25 -27 -111 -74q-45 -25 -65 -45q-31 -31 -31 -69 q0 -35 26.5 -60.5t75.5 -54.5q104 -61 129 -86q88 -88 125 -211q-18 12 -268 197q-102 76 -164 76q-51 0 -116.5 -47.5t-174.5 -155.5q-37 -37 -76.5 -56.5t-86.5 -19.5z" />
<glyph unicode="&#xd8;" horiz-adv-x="1183" d="M66 371q0 223 217 462.5t438 239.5q61 0 121 -18q33 53 65 106q18 29 70 103q55 -49 55 -121q0 -20 -24.5 -70.5t-38.5 -77.5q96 -63 152.5 -166.5t56.5 -222.5q0 -227 -256 -399q-229 -154 -467 -154q-57 0 -113 13q-57 -49 -121.5 -83t-134.5 -42q10 53 34.5 99 t65.5 95q-57 43 -88.5 100.5t-31.5 135.5zM203 391q0 -111 55 -178l6 4q109 104 205 236q82 111 172 260q78 135 158 270l-29 2q-70 0 -133 -43q-53 -37 -102 -100q-12 -16 -218 -166q-115 -84 -114 -285zM414 147q207 0 426 134q250 151 250 348q0 78 -45.5 158.5 t-116.5 136.5q-104 -180 -259 -414t-255 -363z" />
<glyph unicode="&#xd9;" d="M74 698q0 258 30 379q25 98 74 125q12 -55 18.5 -125.5t6.5 -130.5q0 -92 -4 -166q-14 -260 -15 -276q0 -182 29 -266q49 -143 195 -144q233 0 395 195q152 182 151 426q0 125 -59 278q-68 139 -133 279q0 18 12 50t25 60q127 -113 191.5 -271.5t64.5 -336.5 q0 -328 -187 -545q-197 -229 -516 -229q-162 0 -227 129q-47 94 -47 281q0 41 -2 153.5t-2 134.5zM74 1708q35 29 86 29q104 0 248 -105q126 -92 198 -194q-178 18 -296 73q-145 68 -236 197z" />
<glyph unicode="&#xda;" d="M74 698q0 258 30 379q25 98 74 125q12 -55 18.5 -125.5t6.5 -130.5q0 -92 -4 -166q-14 -260 -15 -276q0 -182 29 -266q49 -143 195 -144q233 0 395 195q152 182 151 426q0 125 -59 278q-68 139 -133 279q0 18 12 50t25 60q127 -113 191.5 -271.5t64.5 -336.5 q0 -328 -187 -545q-197 -229 -516 -229q-162 0 -227 129q-47 94 -47 281q0 41 -2 153.5t-2 134.5zM422 1468q27 78 72 160q53 90 145 198q39 46 166 185q6 -16 8 -42t2 -30q0 -47 -15 -95t-42 -93q-53 -92 -147.5 -175t-188.5 -108z" />
<glyph unicode="&#xdb;" d="M74 698q0 258 30 379q25 98 74 125q12 -55 18.5 -125.5t6.5 -130.5q0 -92 -4 -166q-14 -260 -15 -276q0 -182 29 -266q49 -143 195 -144q233 0 395 195q152 182 151 426q0 125 -59 278q-68 139 -133 279q0 18 12 50t25 60q127 -113 191.5 -271.5t64.5 -336.5 q0 -328 -187 -545q-197 -229 -516 -229q-162 0 -227 129q-47 94 -47 281q0 41 -2 153.5t-2 134.5zM102 1421q0 43 15.5 82t46.5 82q53 80 145 211q123 174 151.5 182.5t43.5 12.5l172 -230q116 -155 116 -239l-6 -43q-86 25 -153 112q-180 233 -199 244q-133 -244 -174 -295 q-80 -100 -158 -119z" />
<glyph unicode="&#xdc;" d="M74 698q0 258 30 379q25 98 74 125q12 -55 18.5 -125.5t6.5 -130.5q0 -92 -4 -166q-14 -260 -15 -276q0 -182 29 -266q49 -143 195 -144q233 0 395 195q152 182 151 426q0 125 -59 278q-68 139 -133 279q0 18 12 50t25 60q127 -113 191.5 -271.5t64.5 -336.5 q0 -328 -187 -545q-197 -229 -516 -229q-162 0 -227 129q-47 94 -47 281q0 41 -2 153.5t-2 134.5zM149 1546q72 37 99 45q47 17 110 17q0 -61 -18 -109q-25 -66 -76 -65q-37 0 -70 39q-25 29 -45 73zM534 1538q72 37 99 45q47 17 110 17q0 -61 -18 -109q-25 -66 -76 -65 q-37 0 -70 38q-25 29 -45 74z" />
<glyph unicode="&#xdd;" d="M113 1231q0 20 2 31l4 32q61 -20 196 -186q121 -147 213 -147q113 0 357 223q90 84 180 170q10 -12 19.5 -29.5t9.5 -42.5q0 -82 -131 -182q-231 -176 -242 -187q-133 -127 -133 -268q0 -70 6 -139q18 -209 18 -234q0 -94 -18 -151q-25 -80 -90 -121q-33 80 -44 163 t-11 189q0 35 2 106.5t2 108.5q0 158 -88 287q-12 18 -162 188q-90 102 -90 189zM543 1427q27 78 72 160q53 90 145 198q39 46 166 185q6 -16 8 -42t2 -30q0 -47 -15 -95t-42 -93q-53 -92 -147.5 -175t-188.5 -108z" />
<glyph unicode="&#xde;" horiz-adv-x="1007" d="M88 438q53 39 88 91.5t35 115.5q0 53 -23 115q-70 188 -69 190q16 14 28 25q25 23 31 24q8 23 10 52.5t2 76.5q0 76 -4 131.5t-8 129.5q43 0 109 -62q6 -53 14 -106q10 -133 43 -213q41 10 106.5 17t120.5 7q170 0 269 -37q149 -55 149 -198q0 -182 -147 -277 q-82 -51 -291 -100q-176 -41 -207 -86q-14 -18 -18 -34.5t-4 -39.5q0 -10 2 -34.5t2 -41.5q0 -78 -25 -123t-94 -61l4 252q0 31 -21 67q-31 55 -102 119zM326 637q0 -70 43 -101.5t114 -31.5q125 0 254 71q154 86 154 201q0 74 -88 113q-70 31 -154 31q-184 0 -246 -46 q-78 -57 -77 -237z" />
<glyph unicode="&#xdf;" horiz-adv-x="1153" d="M145 1053q0 135 138 188q90 35 254 35q154 0 258 -39q154 -57 153 -184q0 -57 -35 -123q-78 -145 -77 -148q0 -68 157.5 -158t157.5 -223q0 -168 -203 -295q-174 -109 -411 -143q-43 14 -53.5 45t-10.5 84q197 37 348 115q186 96 187 205q0 92 -150 157q-125 55 -231 56 q-70 0 -116 -7.5t-87 -27.5q-10 35 -10 53q0 29 15 47.5t44 34.5q100 31 167 77t130 130q29 37 40 62.5t11 47.5q0 61 -100 88q-63 16 -152 17q-164 0 -219 -31q-86 -47 -86 -198q16 -113 29.5 -252.5t13.5 -311.5q0 -45 24.5 -274.5t24.5 -276.5q4 -12 4 -20 q0 -29 -6 -62.5t-14 -33.5q-78 0 -111 16q-51 27 -51 100v586q0 111 -16.5 332t-16.5 332z" />
<glyph unicode="&#xe0;" d="M53 375q0 193 240 340q215 131 422 131q166 0 248 -160q61 -119 81 -348q11 -170 23 -338q-25 -4 -48.5 -8t-27.5 -4q-78 0 -114 108q-25 86 -50 174q-178 -106 -237 -137q-160 -80 -256 -80q-119 0 -200 98.5t-81 223.5zM211 1268q35 29 86 29q104 0 248 -105 q126 -92 198 -194q-178 18 -296 73q-145 68 -236 197zM219 350q0 -152 146 -151q137 0 297 112q145 103 225 234q-16 10 -123 110q-74 70 -146 70q-150 0 -274.5 -112.5t-124.5 -262.5z" />
<glyph unicode="&#xe1;" d="M53 375q0 193 240 340q215 131 422 131q166 0 248 -160q61 -119 81 -348q11 -170 23 -338q-25 -4 -48.5 -8t-27.5 -4q-78 0 -114 108q-25 86 -50 174q-178 -106 -237 -137q-160 -80 -256 -80q-119 0 -200 98.5t-81 223.5zM219 350q0 -152 146 -151q137 0 297 112 q145 103 225 234q-16 10 -123 110q-74 70 -146 70q-150 0 -274.5 -112.5t-124.5 -262.5zM694 1053q27 78 72 160q53 90 145 198q39 46 166 185q6 -16 8 -42t2 -30q0 -47 -15 -95t-42 -93q-53 -92 -147.5 -175t-188.5 -108z" />
<glyph unicode="&#xe2;" d="M53 375q0 193 240 340q215 131 422 131q166 0 248 -160q61 -119 81 -348q11 -170 23 -338q-25 -4 -48.5 -8t-27.5 -4q-78 0 -114 108q-25 86 -50 174q-178 -106 -237 -137q-160 -80 -256 -80q-119 0 -200 98.5t-81 223.5zM219 350q0 -152 146 -151q137 0 297 112 q145 103 225 234q-16 10 -123 110q-74 70 -146 70q-150 0 -274.5 -112.5t-124.5 -262.5zM362 925q0 43 15.5 82t46.5 82q53 80 145 211q123 174 151.5 182.5t43.5 12.5l172 -230q116 -155 116 -239l-6 -43q-86 25 -153 112q-180 233 -199 244q-133 -244 -174 -295 q-80 -100 -158 -119z" />
<glyph unicode="&#xe3;" d="M53 375q0 193 240 340q215 131 422 131q166 0 248 -160q61 -119 81 -348q11 -170 23 -338q-25 -4 -48.5 -8t-27.5 -4q-78 0 -114 108q-25 86 -50 174q-178 -106 -237 -137q-160 -80 -256 -80q-119 0 -200 98.5t-81 223.5zM192 954q0 90 70 174q78 92 184 92q33 0 215 -98 q88 -47 162 -47q70 0 160 63q57 47 82 64q8 -22 8 -53q0 -84 -80 -133q-70 -43 -176 -43q-137 0 -230.5 72.5t-119.5 72.5q-47 0 -142 -92q-55 -53 -133 -72zM219 350q0 -152 146 -151q137 0 297 112q145 103 225 234q-16 10 -123 110q-74 70 -146 70q-150 0 -274.5 -112.5 t-124.5 -262.5z" />
<glyph unicode="&#xe4;" d="M53 375q0 193 240 340q215 131 422 131q166 0 248 -160q61 -119 81 -348q11 -170 23 -338q-25 -4 -48.5 -8t-27.5 -4q-78 0 -114 108q-25 86 -50 174q-178 -106 -237 -137q-160 -80 -256 -80q-119 0 -200 98.5t-81 223.5zM219 350q0 -152 146 -151q137 0 297 112 q145 103 225 234q-16 10 -123 110q-74 70 -146 70q-150 0 -274.5 -112.5t-124.5 -262.5zM424 1124q72 37 99 45q47 17 110 17q0 -61 -18 -109q-25 -66 -76 -65q-37 0 -70 39q-25 29 -45 73zM809 1116q72 37 99 45q47 17 110 17q0 -61 -18 -109q-25 -66 -76 -65q-37 0 -70 38 q-25 29 -45 74z" />
<glyph unicode="&#xe5;" d="M53 375q0 193 240 340q215 131 422 131q166 0 248 -160q61 -119 81 -348q11 -170 23 -338q-25 -4 -48.5 -8t-27.5 -4q-78 0 -114 108q-25 86 -50 174q-178 -106 -237 -137q-160 -80 -256 -80q-119 0 -200 98.5t-81 223.5zM219 350q0 -152 146 -151q137 0 297 112 q145 103 225 234q-16 10 -123 110q-74 70 -146 70q-150 0 -274.5 -112.5t-124.5 -262.5zM520 1084q0 100 101.5 168.5t207.5 68.5q76 0 130 -42.5t54 -118.5q0 -90 -123 -140q-94 -37 -202 -36q-88 0 -128 26.5t-40 73.5zM589 1098q0 -29 49.5 -43t88.5 -14q72 0 139 22 q94 33 94 90q0 45 -37 80t-80 35q-51 0 -152.5 -63.5t-101.5 -106.5z" />
<glyph unicode="&#xe6;" horiz-adv-x="2002" d="M53 375q0 193 240 340q215 131 422 131q106 0 178 -66q63 -59 100 -166q94 96 229.5 150.5t272.5 54.5q76 0 133 -33q72 -41 72 -112q0 -84 -203 -189q-143 -70 -285 -139l-159 -110l2 -48q59 -37 122.5 -56t129.5 -19q137 0 288 69q50 23 433 269q0 -201 -265 -336 q-223 -115 -446 -115q-70 0 -131.5 9t-122.5 32l4 -41q-25 -4 -48.5 -8t-27.5 -4q-78 0 -114 108q-25 86 -50 174q-178 -106 -237 -137q-160 -80 -256 -80q-119 0 -200 98.5t-81 223.5zM219 350q0 -152 146 -151q137 0 297 112q145 103 225 234q-16 10 -123 110 q-74 70 -146 70q-150 0 -274.5 -112.5t-124.5 -262.5zM1057 483q0 -4 23.5 -42t27.5 -52q135 33 238 92q127 75 178 181q-72 14 -152 14q-102 0 -166 -25q-86 -33 -127 -110q-8 -14 -15 -30.5t-7 -27.5z" />
<glyph unicode="&#xe7;" horiz-adv-x="1302" d="M78 256q0 215 276 406q223 154 473 208l31 -28h60l28 -29v-61q-201 -47 -436 -179q-301 -168 -301 -315q0 -82 86 -123q66 -31 156 -31q121 0 301 43q41 10 297 80q164 45 221 45l33 -2q-63 -158 -379 -229q-213 -49 -469 -49q-176 0 -258 43q-119 61 -119 221zM297 -643 q162 76 219 117q113 80 112 172q0 43 -65.5 119t-65.5 109l45 67q86 -47 130 -117.5t44 -152.5q0 -127 -90 -217q-100 -100 -266 -101h-25q-14 0 -38 4z" />
<glyph unicode="&#xe8;" horiz-adv-x="1243" d="M55 305q0 229 205 379q186 135 422 135q76 0 133 -33q72 -41 72 -112q0 -84 -203 -189q-143 -70 -285 -139l-192 -135q66 -47 137.5 -72.5t149.5 -25.5q137 0 288 69q49 23 432 269q0 -201 -264 -336q-223 -115 -446 -115q-182 0 -297 59q-152 78 -152 246zM143 1239 q35 29 86 29q104 0 248 -105q126 -92 198 -194q-178 18 -296 73q-145 68 -236 197zM244 483q0 -4 23.5 -42t27.5 -52q135 33 237 92q128 75 179 181q-72 14 -152 14q-102 0 -166 -25q-86 -33 -127 -110q-8 -14 -15 -30.5t-7 -27.5z" />
<glyph unicode="&#xe9;" horiz-adv-x="1243" d="M55 305q0 229 205 379q186 135 422 135q76 0 133 -33q72 -41 72 -112q0 -84 -203 -189q-143 -70 -285 -139l-192 -135q66 -47 137.5 -72.5t149.5 -25.5q137 0 288 69q49 23 432 269q0 -201 -264 -336q-223 -115 -446 -115q-182 0 -297 59q-152 78 -152 246zM244 483 q0 -4 23.5 -42t27.5 -52q135 33 237 92q128 75 179 181q-72 14 -152 14q-102 0 -166 -25q-86 -33 -127 -110q-8 -14 -15 -30.5t-7 -27.5zM639 1005q27 78 72 160q53 90 145 198q39 46 166 185q6 -16 8 -42t2 -30q0 -47 -15 -95t-42 -93q-53 -92 -147.5 -175t-188.5 -108z " />
<glyph unicode="&#xea;" horiz-adv-x="1243" d="M55 305q0 229 205 379q186 135 422 135q76 0 133 -33q72 -41 72 -112q0 -84 -203 -189q-143 -70 -285 -139l-192 -135q66 -47 137.5 -72.5t149.5 -25.5q137 0 288 69q49 23 432 269q0 -201 -264 -336q-223 -115 -446 -115q-182 0 -297 59q-152 78 -152 246zM244 483 q0 -4 23.5 -42t27.5 -52q135 33 237 92q128 75 179 181q-72 14 -152 14q-102 0 -166 -25q-86 -33 -127 -110q-8 -14 -15 -30.5t-7 -27.5zM287 907q0 43 15.5 82t46.5 82q53 80 145 211q123 174 151.5 182.5t43.5 12.5l172 -230q116 -155 116 -239l-6 -43q-86 25 -153 112 q-180 233 -199 244q-133 -244 -174 -295q-80 -100 -158 -119z" />
<glyph unicode="&#xeb;" horiz-adv-x="1243" d="M55 305q0 229 205 379q186 135 422 135q76 0 133 -33q72 -41 72 -112q0 -84 -203 -189q-143 -70 -285 -139l-192 -135q66 -47 137.5 -72.5t149.5 -25.5q137 0 288 69q49 23 432 269q0 -201 -264 -336q-223 -115 -446 -115q-182 0 -297 59q-152 78 -152 246zM244 483 q0 -4 23.5 -42t27.5 -52q135 33 237 92q128 75 179 181q-72 14 -152 14q-102 0 -166 -25q-86 -33 -127 -110q-8 -14 -15 -30.5t-7 -27.5zM368 1120q72 37 99 45q47 17 110 17q0 -61 -18 -109q-25 -66 -76 -65q-37 0 -70 39q-25 29 -45 73zM753 1112q72 37 99 45 q47 17 110 17q0 -61 -18 -109q-25 -66 -76 -65q-37 0 -70 38q-25 29 -45 74z" />
<glyph unicode="&#xec;" horiz-adv-x="532" d="M203 319q0 162 43 246q37 72 108 94q12 -55 18.5 -122.5t6.5 -126.5q0 -135 -23 -228q-35 -141 -118 -182q-18 98 -26.5 170t-8.5 149zM203 1127q35 29 86 29q104 0 248 -105q126 -92 198 -194q-178 18 -296 73q-145 68 -236 197z" />
<glyph unicode="&#xed;" horiz-adv-x="532" d="M203 319q0 162 43 246q37 72 108 94q12 -55 18.5 -122.5t6.5 -126.5q0 -135 -23 -228q-35 -141 -118 -182q-18 98 -26.5 170t-8.5 149zM303 872q27 78 72 160q53 90 145 198q39 46 166 185q6 -16 8 -42t2 -30q0 -47 -15 -95t-42 -93q-53 -92 -147.5 -175t-188.5 -108z " />
<glyph unicode="&#xee;" horiz-adv-x="532" d="M203 319q0 162 43 246q37 72 108 94q12 -55 18.5 -122.5t6.5 -126.5q0 -135 -23 -228q-35 -141 -118 -182q-18 98 -26.5 170t-8.5 149zM203 733q0 43 15.5 82t46.5 82q53 80 145 211q123 174 151.5 182.5t43.5 12.5l172 -230q116 -155 116 -239l-6 -43q-86 25 -153 112 q-180 233 -199 244q-133 -244 -174 -295q-80 -100 -158 -119z" />
<glyph unicode="&#xef;" horiz-adv-x="532" d="M202 997q72 37 99 45q47 17 110 17q0 -61 -18 -109q-25 -66 -76 -65q-37 0 -70 39q-25 29 -45 73zM203 319q0 162 43 246q37 72 108 94q12 -55 18.5 -122.5t6.5 -126.5q0 -135 -23 -228q-35 -141 -118 -182q-18 98 -26.5 170t-8.5 149zM587 989q72 37 99 45q47 17 110 17 q0 -61 -18 -109q-25 -66 -76 -65q-37 0 -70 38q-25 29 -45 74z" />
<glyph unicode="&#xf0;" horiz-adv-x="886" d="M104 199q0 133 104.5 237.5t235.5 104.5q59 0 123 -17q25 -6 203 -71q12 55 12 114q0 78 -25.5 135.5t-76.5 106.5l-62 -14q-18 -4 -45 -19q-61 -33 -77 -37q-31 -8 -55.5 14.5t-51.5 65.5q33 20 82 41t88 33q-76 39 -201 77t-182 54q86 106 230 106q98 0 196 -47 t172 -129q25 10 37 15q31 12 37 14q20 4 29 4q53 0 94 -72q-31 -23 -60 -36q-14 -8 -65 -27q41 -82 41 -160l4 -262q0 -242 -82 -399q-106 -205 -326 -205q-147 0 -263 111.5t-116 261.5zM252 221q0 -109 57.5 -176.5t163.5 -67.5q129 0 205 119q43 68 92 238q-47 0 -203 20 q-78 10 -123 11q-86 0 -133 -27q-59 -35 -59 -117z" />
<glyph unicode="&#xf1;" horiz-adv-x="976" d="M53 455q0 113 25.5 189.5t99.5 135.5q29 -197 60 -391q74 92 147 184q96 113 176 170q109 76 215 76q133 0 133 -139l9 -188q0 -53 16 -130q37 -172 37 -215q0 -123 -113 -147q-18 78 -27 121q-14 68 -20 123q-4 152 -14 245q-20 180 -103 181q-104 0 -213 -172 q-94 -162 -186 -324q-117 -174 -240 -174q10 35 12.5 62.5t2.5 72.5q0 53 -8.5 159.5t-8.5 160.5zM92 952q0 90 70 174q78 92 184 92q33 0 215 -98q88 -47 162 -47q70 0 160 63q57 47 82 64q8 -22 8 -53q0 -84 -80 -133q-70 -43 -176 -43q-137 0 -230.5 72.5t-119.5 72.5 q-47 0 -142 -92q-55 -53 -133 -72z" />
<glyph unicode="&#xf2;" horiz-adv-x="1124" d="M57 211q0 217 234 373q209 139 436 139q162 0 274 -88q125 -98 125 -258q0 -197 -270 -303q-203 -80 -436 -80q-145 0 -234 37q-129 53 -129 180zM209 242q0 -66 119 -99q84 -23 176 -22q160 0 305 49q203 67 203 192q0 94 -81 171t-175 77q-109 0 -322 -133 q-225 -141 -225 -235zM266 1188q35 29 86 29q104 0 248 -105q126 -92 198 -194q-178 18 -296 73q-145 68 -236 197z" />
<glyph unicode="&#xf3;" horiz-adv-x="1124" d="M57 211q0 217 234 373q209 139 436 139q162 0 274 -88q125 -98 125 -258q0 -197 -270 -303q-203 -80 -436 -80q-145 0 -234 37q-129 53 -129 180zM209 242q0 -66 119 -99q84 -23 176 -22q160 0 305 49q203 67 203 192q0 94 -81 171t-175 77q-109 0 -322 -133 q-225 -141 -225 -235zM706 1005q27 78 72 160q53 90 145 198q39 46 166 185q6 -16 8 -42t2 -30q0 -47 -15 -95t-42 -93q-53 -92 -147.5 -175t-188.5 -108z" />
<glyph unicode="&#xf4;" horiz-adv-x="1124" d="M57 211q0 217 234 373q209 139 436 139q162 0 274 -88q125 -98 125 -258q0 -197 -270 -303q-203 -80 -436 -80q-145 0 -234 37q-129 53 -129 180zM209 242q0 -66 119 -99q84 -23 176 -22q160 0 305 49q203 67 203 192q0 94 -81 171t-175 77q-109 0 -322 -133 q-225 -141 -225 -235zM352 815q0 43 15.5 82t46.5 82q53 80 145 211q123 174 151.5 182.5t43.5 12.5l172 -230q116 -155 116 -239l-6 -43q-86 25 -153 112q-180 233 -199 244q-133 -244 -174 -295q-80 -100 -158 -119z" />
<glyph unicode="&#xf5;" horiz-adv-x="1124" d="M57 211q0 217 234 373q209 139 436 139q162 0 274 -88q125 -98 125 -258q0 -197 -270 -303q-203 -80 -436 -80q-145 0 -234 37q-129 53 -129 180zM209 242q0 -66 119 -99q84 -23 176 -22q160 0 305 49q203 67 203 192q0 94 -81 171t-175 77q-109 0 -322 -133 q-225 -141 -225 -235zM280 870q0 90 70 174q78 92 184 92q33 0 215 -98q88 -47 162 -47q70 0 160 63q57 47 82 64q8 -22 8 -53q0 -84 -80 -133q-70 -43 -176 -43q-137 0 -230.5 72.5t-119.5 72.5q-47 0 -142 -92q-55 -53 -133 -72z" />
<glyph unicode="&#xf6;" horiz-adv-x="1124" d="M57 211q0 217 234 373q209 139 436 139q162 0 274 -88q125 -98 125 -258q0 -197 -270 -303q-203 -80 -436 -80q-145 0 -234 37q-129 53 -129 180zM209 242q0 -66 119 -99q84 -23 176 -22q160 0 305 49q203 67 203 192q0 94 -81 171t-175 77q-109 0 -322 -133 q-225 -141 -225 -235zM454 1028q72 37 99 45q47 17 110 17q0 -61 -18 -109q-25 -66 -76 -65q-37 0 -70 39q-25 29 -45 73zM839 1020q72 37 99 45q47 17 110 17q0 -61 -18 -109q-25 -66 -76 -65q-37 0 -70 38q-25 29 -45 74z" />
<glyph unicode="&#xf7;" horiz-adv-x="1036" d="M59 662q76 16 175.5 23t201.5 7h154q33 0 100.5 6.5t102.5 6.5q61 0 95.5 -23t57.5 -82q-70 -20 -137.5 -27.5t-159.5 -7.5q-66 0 -133 2t-133 4q-33 0 -125 -14q-53 -8 -74 -8q-49 0 -80 33q-23 25 -45 80zM424 1010q72 37 98 45q48 16 111 16q0 -61 -19 -108 q-25 -66 -75 -66q-37 0 -70 39q-25 29 -45 74zM434 231q72 37 98 45q48 17 111 17q0 -61 -18 -109q-25 -66 -76 -65q-37 0 -70 39q-25 29 -45 73z" />
<glyph unicode="&#xf8;" horiz-adv-x="1124" d="M57 211q0 217 234 373q209 139 436 139q53 0 102 -12q68 111 80 131q33 53 86 127q47 -41 47 -103q0 -16 -25.5 -68.5t-70.5 -127.5q82 -43 131 -118t49 -175q0 -182 -227 -291q-188 -90 -407 -90l-35 -35q-47 -43 -105.5 -73.5t-118.5 -39.5q8 41 24.5 76t49.5 76 q-109 14 -170 57q-80 55 -80 154zM209 242q0 -53 74 -84q53 -23 143 -33q94 96 186 231q64 92 158 254h-14q-109 0 -322 -133q-225 -141 -225 -235zM588 125q221 23 334 94q90 57 90 143q0 59 -36 114.5t-91 90.5q-160 -252 -297 -442z" />
<glyph unicode="&#xf9;" horiz-adv-x="1036" d="M72 401q0 139 32 279q45 190 134 223l6 -80q0 -70 -15 -168q-33 -227 -32 -284q0 -123 43 -189q51 -78 168 -78q135 0 231 193q35 68 137 377q74 223 139 260q20 -74 21 -160q0 -51 -11.5 -170t-11.5 -155q0 -82 33 -170.5t68 -176.5q0 -39 -47 -67q-29 -18 -80 -33 q-57 117 -64 131q-29 63 -53 139q-80 -117 -168 -188q-113 -92 -227 -92q-172 0 -246 123q-57 96 -57 286zM143 1413q35 29 86 29q104 0 248 -105q126 -92 198 -194q-178 18 -296 73q-145 68 -236 197z" />
<glyph unicode="&#xfa;" horiz-adv-x="1036" d="M72 401q0 139 32 279q45 190 134 223l6 -80q0 -70 -15 -168q-33 -227 -32 -284q0 -123 43 -189q51 -78 168 -78q135 0 231 193q35 68 137 377q74 223 139 260q20 -74 21 -160q0 -51 -11.5 -170t-11.5 -155q0 -82 33 -170.5t68 -176.5q0 -39 -47 -67q-29 -18 -80 -33 q-57 117 -64 131q-29 63 -53 139q-80 -117 -168 -188q-113 -92 -227 -92q-172 0 -246 123q-57 96 -57 286zM559 1169q27 78 72 160q53 90 145 198q39 46 166 185q6 -16 8 -42t2 -30q0 -47 -15 -95t-42 -93q-53 -92 -147.5 -175t-188.5 -108z" />
<glyph unicode="&#xfb;" horiz-adv-x="1036" d="M72 401q0 139 32 279q45 190 134 223l6 -80q0 -70 -15 -168q-33 -227 -32 -284q0 -123 43 -189q51 -78 168 -78q135 0 231 193q35 68 137 377q74 223 139 260q20 -74 21 -160q0 -51 -11.5 -170t-11.5 -155q0 -82 33 -170.5t68 -176.5q0 -39 -47 -67q-29 -18 -80 -33 q-57 117 -64 131q-29 63 -53 139q-80 -117 -168 -188q-113 -92 -227 -92q-172 0 -246 123q-57 96 -57 286zM225 1020q0 43 15.5 82t46.5 82q53 80 145 211q123 174 151.5 182.5t43.5 12.5l172 -230q116 -155 116 -239l-6 -43q-86 25 -153 112q-180 233 -199 244 q-133 -244 -174 -295q-80 -100 -158 -119z" />
<glyph unicode="&#xfc;" horiz-adv-x="1036" d="M72 401q0 139 32 279q45 190 134 223l6 -80q0 -70 -15 -168q-33 -227 -32 -284q0 -123 43 -189q51 -78 168 -78q135 0 231 193q35 68 137 377q74 223 139 260q20 -74 21 -160q0 -51 -11.5 -170t-11.5 -155q0 -82 33 -170.5t68 -176.5q0 -39 -47 -67q-29 -18 -80 -33 q-57 117 -64 131q-29 63 -53 139q-80 -117 -168 -188q-113 -92 -227 -92q-172 0 -246 123q-57 96 -57 286zM276 1212q72 37 99 45q47 17 110 17q0 -61 -18 -109q-25 -66 -76 -65q-37 0 -70 39q-25 29 -45 73zM661 1204q72 37 99 45q47 17 110 17q0 -61 -18 -109 q-25 -66 -76 -65q-37 0 -70 38q-25 29 -45 74z" />
<glyph unicode="&#xfd;" horiz-adv-x="1036" d="M-117 -1292q37 70 248 405.5t318 530.5q158 291 157 403q0 84 -101.5 190.5t-197.5 211.5q-106 135 -106 272l8 61q100 -82 231 -258q104 -141 209 -282q35 61 90.5 256.5t94.5 275.5q70 143 174 189l6 -99q0 -195 -86 -415q-43 -109 -189 -390q-129 -250 -178 -389 q-63 -180 -147 -358q-119 -252 -238 -399q-152 -190 -293 -205zM532 1005q27 78 72 160q53 90 145 198q39 46 166 185q6 -16 8 -42t2 -30q0 -47 -15 -95t-42 -93q-53 -92 -147.5 -175t-188.5 -108z" />
<glyph unicode="&#xfe;" d="M98 -575q0 78 6 182q14 246 15 305l-2 289q0 176 2 404.5t18.5 456.5t57.5 310q39 0 55 -12q27 -20 49 -92q4 0 6 -35t2 -78q0 -178 5 -256t36 -117q242 33 483 68q125 0 180.5 -59.5t55.5 -190.5q0 -215 -186 -348q-102 -72 -365 -168q-217 -80 -252 -147 q-23 -41 -31 -97.5t-8 -122.5q0 -59 5.5 -151t5.5 -94q0 -102 -19 -160q-27 -84 -100 -125q-10 55 -14.5 115.5t-4.5 122.5zM238 309q0 -51 7 -105t21 -114q176 41 287 86q168 70 260 164q113 116 113 276q0 127 -131 127q-117 0 -298.5 -82.5t-224.5 -179.5 q-16 -37 -25 -81t-9 -91z" />
<glyph unicode="&#xff;" horiz-adv-x="1036" d="M-117 -1292q37 70 248 405.5t318 530.5q158 291 157 403q0 84 -101.5 190.5t-197.5 211.5q-106 135 -106 272l8 61q100 -82 231 -258q104 -141 209 -282q35 61 90.5 256.5t94.5 275.5q70 143 174 189l6 -99q0 -195 -86 -415q-43 -109 -189 -390q-129 -250 -178 -389 q-63 -180 -147 -358q-119 -252 -238 -399q-152 -190 -293 -205zM278 1251q72 37 99 45q47 17 110 17q0 -61 -18 -109q-25 -66 -76 -65q-37 0 -70 39q-25 29 -45 73zM663 1243q72 37 99 45q47 17 110 17q0 -61 -18 -109q-25 -66 -76 -65q-37 0 -70 38q-25 29 -45 74z" />
<glyph unicode="&#x152;" horiz-adv-x="1574" d="M66 371q0 223 217 462.5t438 239.5q90 0 162 -39v19q0 100 202 135q98 16 281 16l229 -2q-70 -72 -327 -108q-209 -31 -252 -195v-305q18 -6 57 -6q35 0 66.5 2t60.5 4q51 0 227 24q88 12 140 13q-55 -61 -250 -99t-254 -88q-37 -20 -41 -28q-6 -16 -6 -123 q0 -96 49 -135t145 -39q102 0 251 31.5t282 60.5q-92 -109 -273 -164q-152 -47 -321 -47q-164 0 -209 29q-57 37 -57 176q-92 -74 -205 -113t-223 -39q-154 0 -265 78q-125 88 -124 240zM203 391q0 -104 52 -174t155 -70q195 0 307.5 43t165.5 129v613q-43 53 -113 53 t-133 -43q-53 -37 -102 -100q-12 -16 -218 -166q-115 -84 -114 -285z" />
<glyph unicode="&#x153;" horiz-adv-x="1904" d="M57 211q0 217 234 373q209 139 436 139q96 0 177 -32t138 -95q92 106 232.5 164.5t286.5 58.5q76 0 133 -33q72 -41 71 -112q0 -84 -202 -189q-143 -70 -285 -139l-193 -135q66 -47 137.5 -72.5t149.5 -25.5q137 0 289 69q49 23 432 269q0 -201 -264 -336 q-223 -115 -447 -115q-123 0 -217 29q-121 37 -178 112q-106 -74 -289 -114q-147 -33 -278 -33q-145 0 -234 37q-129 53 -129 180zM209 242q0 -66 119 -99q84 -23 176 -22q100 0 213 24q147 33 225 93q-4 12 16 67q13 35 13 41q0 27 -5 57.5t-5 34.5q0 23 10 45 q-35 55 -95.5 91t-119.5 36q-109 0 -322 -133q-225 -141 -225 -235zM1122 483q0 -4 23.5 -42t28.5 -52q135 33 237 92q127 75 178 181q-72 14 -151 14q-102 0 -166 -25q-86 -33 -127 -110q-8 -14 -15.5 -30.5t-7.5 -27.5z" />
<glyph unicode="&#x178;" d="M113 1231q0 20 2 31l4 32q61 -20 196 -186q121 -147 213 -147q113 0 357 223q90 84 180 170q10 -12 19.5 -29.5t9.5 -42.5q0 -82 -131 -182q-231 -176 -242 -187q-133 -127 -133 -268q0 -70 6 -139q18 -209 18 -234q0 -94 -18 -151q-25 -80 -90 -121q-33 80 -44 163 t-11 189q0 35 2 106.5t2 108.5q0 158 -88 287q-12 18 -162 188q-90 102 -90 189zM305 1540q72 37 99 45q47 17 110 17q0 -61 -18 -109q-25 -66 -76 -65q-37 0 -70 39q-25 29 -45 73zM690 1532q72 37 99 45q47 17 110 17q0 -61 -18 -109q-25 -66 -76 -65q-37 0 -70 38 q-25 29 -45 74z" />
<glyph unicode="&#x2c6;" horiz-adv-x="1122" d="M264 1081q0 43 15.5 82t46.5 82q53 80 145 211q123 174 151.5 182.5t43.5 12.5l172 -230q116 -155 116 -239l-6 -43q-86 25 -153 112q-180 233 -199 244q-133 -244 -174 -295q-80 -100 -158 -119z" />
<glyph unicode="&#x2dc;" horiz-adv-x="1105" d="M90 1372q0 90 70 174q78 92 184 92q33 0 215 -98q88 -47 162 -47q70 0 160 63q57 47 82 64q8 -22 8 -53q0 -84 -80 -133q-70 -43 -176 -43q-137 0 -230.5 72.5t-119.5 72.5q-47 0 -142 -92q-55 -53 -133 -72z" />
<glyph unicode="&#x2000;" horiz-adv-x="1097" />
<glyph unicode="&#x2001;" horiz-adv-x="2195" />
<glyph unicode="&#x2002;" horiz-adv-x="1097" />
<glyph unicode="&#x2003;" horiz-adv-x="2195" />
<glyph unicode="&#x2004;" horiz-adv-x="731" />
<glyph unicode="&#x2005;" horiz-adv-x="548" />
<glyph unicode="&#x2006;" horiz-adv-x="365" />
<glyph unicode="&#x2007;" horiz-adv-x="365" />
<glyph unicode="&#x2008;" horiz-adv-x="274" />
<glyph unicode="&#x2009;" horiz-adv-x="439" />
<glyph unicode="&#x200a;" horiz-adv-x="121" />
<glyph unicode="&#x2010;" horiz-adv-x="1036" d="M147 662q76 16 175.5 23t201.5 7h156q33 0 100.5 6.5t102.5 6.5q110 -1 153 -105q-72 -18 -141.5 -25.5t-157.5 -7.5q-43 0 -131 2t-133 2q-31 0 -125 -14q-53 -8 -76 -8q-49 0 -79 33q-23 25 -46 80z" />
<glyph unicode="&#x2011;" horiz-adv-x="1036" d="M147 662q76 16 175.5 23t201.5 7h156q33 0 100.5 6.5t102.5 6.5q110 -1 153 -105q-72 -18 -141.5 -25.5t-157.5 -7.5q-43 0 -131 2t-133 2q-31 0 -125 -14q-53 -8 -76 -8q-49 0 -79 33q-23 25 -46 80z" />
<glyph unicode="&#x2012;" horiz-adv-x="1036" d="M147 662q76 16 175.5 23t201.5 7h156q33 0 100.5 6.5t102.5 6.5q110 -1 153 -105q-72 -18 -141.5 -25.5t-157.5 -7.5q-43 0 -131 2t-133 2q-31 0 -125 -14q-53 -8 -76 -8q-49 0 -79 33q-23 25 -46 80z" />
<glyph unicode="&#x2013;" horiz-adv-x="946" d="M59 662q76 16 175.5 23t201.5 7h154q33 0 100.5 6.5t102.5 6.5q61 0 95.5 -23t57.5 -82q-70 -20 -137.5 -27.5t-159.5 -7.5q-66 0 -133 2t-133 4q-33 0 -125 -14q-53 -8 -74 -8q-49 0 -80 33q-23 25 -45 80z" />
<glyph unicode="&#x2014;" horiz-adv-x="1353" d="M59 662q72 16 250 23t375 7q78 0 146.5 -1t125.5 -1q33 0 100.5 6t102.5 6q61 0 96 -22.5t58 -81.5q-63 -18 -181 -25.5t-282 -7.5q-145 0 -257 2t-210 4q-33 0 -125 -14q-53 -8 -74 -8q-49 0 -80 33q-23 25 -45 80z" />
<glyph unicode="&#x2018;" horiz-adv-x="651" d="M0 1772q0 121 72.5 183t193.5 62q-59 -182 -119 -362q90 0 139.5 -10.5t127.5 -49.5q-35 -70 -68 -104q-47 -49 -110 -49q-100 0 -173 117q-63 104 -63 213z" />
<glyph unicode="&#x2019;" horiz-adv-x="710" d="M326 1835q49 27 92 43t88 16q90 0 143 -96q43 -78 43 -180q0 -131 -89 -228.5t-218 -97.5l-31 2q66 61 131 123q76 84 76 158q0 80 -94 147q-127 92 -141 113z" />
<glyph unicode="&#x201a;" horiz-adv-x="393" d="M25 -70q0 90 14 185q6 39 63 303q47 -43 69 -110.5t22 -139.5q0 -109 -40 -225.5t-110 -186.5q-18 86 -18 174z" />
<glyph unicode="&#x201c;" horiz-adv-x="1273" d="M-6 1309q0 160 92 321q72 125 209 266q16 -8 44 -17t46 -11q-20 -61 -141 -262q-96 -160 -97 -281q43 8 73 12t56 4q80 0 121 -61q24 -39 47 -137q-104 -31 -139 -39q-90 -23 -141 -23q-100 0 -139 66q-31 51 -31 162zM575 1305q0 68 43.5 208t84 219.5t128.5 79.5h33 q16 -6 23 -8q-88 -170 -109 -215q-55 -125 -67 -233q115 0 155 -13q90 -26 90 -112q0 -76 -43 -129t-116 -53q-102 0 -162 74.5t-60 181.5z" />
<glyph unicode="&#x201d;" horiz-adv-x="1599" d="M430 1831q0 57 46 76.5t110 19.5q150 0 276 -153q121 -148 121 -304q0 -164 -82 -274q-92 -123 -248 -123q-47 0 -90 12q31 37 131 107q166 117 166 221q0 131 -55 202t-182 71q-18 0 -53 -11.5t-40 -11.5q-37 14 -68.5 68.5t-31.5 99.5zM1094 1837q74 33 120 53 q92 39 119 35l29 -29q109 -109 158 -178q82 -117 82 -219q0 -158 -131.5 -287t-286.5 -129q84 88 168 179q98 121 98 211q0 145 -160 217q-176 80 -196 147z" />
<glyph unicode="&#x201e;" horiz-adv-x="935" d="M348 438q0 57 46 77t110 20q150 0 276 -154q121 -147 121 -303q0 -164 -82 -275q-92 -123 -248 -122q-47 0 -90 12q31 37 131 106q166 117 166 221q0 131 -55 202t-182 71q-18 0 -53 -11.5t-39 -11.5q-37 14 -69 68.5t-32 99.5zM1012 444q74 33 121 54q92 39 118 34 l29 -28q109 -109 158 -178q82 -118 82 -220q0 -158 -131.5 -286.5t-286.5 -128.5q84 90 168 178q98 121 98 211q0 145 -160 217q-176 80 -196 147z" />
<glyph unicode="&#x2022;" horiz-adv-x="491" d="M82 586q98 51 125 61q90 39 215 39q0 -96 -31 -176q-41 -106 -123 -107q-57 0 -112 64q-39 45 -74 119z" />
<glyph unicode="&#x2026;" horiz-adv-x="1269" d="M86 119q72 37 98 45q48 16 111 16q0 -61 -19 -108q-25 -66 -75 -66q-37 0 -70 39q-25 29 -45 74zM455 119q72 37 98 45q48 16 111 16q0 -61 -19 -108q-25 -66 -76 -66q-37 0 -69 39q-25 29 -45 74zM844 119q72 37 98 45q48 16 111 16q0 -61 -19 -108q-25 -66 -76 -66 q-37 0 -69 39q-25 29 -45 74z" />
<glyph unicode="&#x202f;" horiz-adv-x="439" />
<glyph unicode="&#x2039;" horiz-adv-x="1449" d="M78 662q225 143 489 356q205 166 461 397q29 -14 52.5 -24.5t66.5 -34.5q-102 -117 -264 -244q-145 -109 -291 -217q-176 -131 -277 -233q143 -76 299 -155t294.5 -116t279.5 -74q170 -55 254 -137q-61 -31 -133 -30q-104 0 -262 71q-209 96 -256 109q-123 33 -244 67 q-176 53 -285 109q-143 74 -184 156z" />
<glyph unicode="&#x203a;" horiz-adv-x="1214" d="M88 59q43 104 236 232q186 115 374 231q221 147 310 291q-180 115 -248 160q-150 100 -244 186q-121 109 -192 223q33 29 75 29q27 0 144 -84q6 -4 233 -174q156 -115 207 -145q78 -43 123 -80q76 -64 76 -119q0 -76 -246 -268q-199 -156 -479 -326q-268 -162 -322 -162z " />
<glyph unicode="&#x205f;" horiz-adv-x="548" />
<glyph unicode="&#x2122;" horiz-adv-x="1329" d="M-4 1446v29q231 55 471 55q102 0 155.5 -6.5t116.5 -22.5q-29 -6 -240.5 -13t-228.5 -181q-2 -14 -2 -41q0 -39 5.5 -101.5t5.5 -72.5q0 -55 -8.5 -92t-41.5 -58q-14 66 -14 143q0 49 7 150.5t7 140.5q0 43 -13 58.5t-58 15.5q-23 0 -64 -8t-61 -8l-29 2zM639 946 q0 39 23 80q68 123 67 127l19 88q10 43 20 62q20 35 51 34q0 -115 8 -163q16 -96 70 -146q45 90 72 141q49 94 96 121q20 -94 51 -176q25 -66 74 -168q-12 -6 -25 -14q-4 -2 -22 -19q-16 61 -45 125t-56 127q-37 -59 -73 -118q-61 -90 -88 -91q-27 0 -64 88q-4 12 -43 121 q-18 -37 -36.5 -74.5t-30.5 -74.5l-13 -37q-6 -23 -22 -33l-6 -6q-4 -2 -7 -4l5 4q-10 10 -25 6z" />
<glyph unicode="&#x25fc;" horiz-adv-x="993" d="M0 0v993h993v-993h-993z" />
</font>
</defs>
</svg>
